<?xml version="1.0" encoding="UTF-8"?>
<svg width="142px" height="57px" viewBox="0 0 142 57" version="1.1" xmlns="http://www.w3.org/2000/svg" xmlns:xlink="http://www.w3.org/1999/xlink">
    <!-- Generator: Sketch 46.2 (44496) - http://www.bohemiancoding.com/sketch -->
    <title>Loans For Future Delivery</title>
    <desc>Created with Sketch.</desc>
    <defs></defs>
    <g id="Web-UI" stroke="none" stroke-width="1" fill="none" fill-rule="evenodd">
        <g id="02_Index_Karma_Web_1366px" transform="translate(-486.000000, -3726.000000)">
            <g id="Token-Sale-Timeline" transform="translate(186.000000, 2114.000000)">
                <g id="2-copy-2" transform="translate(254.000000, 1611.000000)">
                    <g id="Loans-For-Future-Delivery" transform="translate(46.000000, 0.000000)">
                        <polyline id="Stroke-1" stroke="#000000" opacity="0.295233243" stroke-linejoin="bevel" points="78.3484 32.9009 82.1514 36.9009 78.3484 40.9009"></polyline>
                        <polygon id="Stroke-2" stroke="#DD1318" points="11.392 54.177 59.749 54.177 59.749 28.5 11.392 28.5"></polygon>
                        <polyline id="Stroke-3" stroke="#000000" stroke-linejoin="bevel" points="54.5212 22.5 6.1642 22.5 6.1642 48.177"></polyline>
                        <g id="Group-90" transform="translate(0.000000, 0.500000)">
                            <polyline id="Stroke-4" stroke="#000000" stroke-linejoin="bevel" points="48.8571 15.5 0.5001 15.5 0.5001 41.177"></polyline>
                            <path d="M42.7497,40.4243 C42.7497,45.9133 39.6967,50.3633 35.9327,50.3633 C32.1667,50.3633 29.1137,45.9133 29.1137,40.4243 C29.1137,34.9353 32.1667,30.4853 35.9327,30.4853 C39.6967,30.4853 42.7497,34.9353 42.7497,40.4243" id="Fill-6" fill="#DD1318"></path>
                            <path d="M46.3972,40.4243 L55.0582,40.4243" id="Stroke-8" stroke="#DD1318"></path>
                            <path d="M16.4548,40.4243 L25.1158,40.4243" id="Stroke-10" stroke="#DD1318"></path>
                            <path d="M66.7497,36.5 L81.7497,36.5" id="Stroke-12" stroke="#000000" opacity="0.295233243" stroke-linejoin="bevel"></path>
                            <path d="M78.2497,46.5 C78.2497,46.5 90.2497,56.5 110.2497,56.5 C130.2497,56.5 141.2497,46.5 141.2497,46.5" id="Stroke-14" stroke="#000000" opacity="0.295233243" stroke-linejoin="bevel"></path>
                            <path d="M109.2497,49.5 L109.2497,0.5" id="Stroke-16" stroke="#DD1318"></path>
                            <polygon id="Stroke-18" stroke="#DD1318" points="109.2497 11.9165 104.2497 8.4995 104.2497 12.4995 109.2497 15.9165"></polygon>
                            <polygon id="Stroke-20" stroke="#DD1318" points="109.2497 15.9165 104.2497 12.4995 104.2497 16.4995 109.2497 19.9165"></polygon>
                            <polygon id="Stroke-22" stroke="#DD1318" points="109.2497 19.9165 104.2497 16.4995 104.2497 20.4995 109.2497 23.9165"></polygon>
                            <polygon id="Stroke-24" stroke="#DD1318" points="109.2497 23.9165 104.2497 20.4995 104.2497 24.4995 109.2497 27.9165"></polygon>
                            <polygon id="Stroke-26" stroke="#DD1318" points="109.2497 27.9165 104.2497 24.4995 104.2497 28.4995 109.2497 31.9165"></polygon>
                            <polygon id="Stroke-28" stroke="#DD1318" points="109.2497 31.9165 104.2497 28.4995 104.2497 32.4995 109.2497 35.9165"></polygon>
                            <polygon id="Stroke-30" stroke="#DD1318" points="109.2497 11.9165 114.2497 8.4995 114.2497 12.4995 109.2497 15.9165"></polygon>
                            <polygon id="Stroke-32" stroke="#DD1318" points="109.2497 15.9165 114.2497 12.4995 114.2497 16.4995 109.2497 19.9165"></polygon>
                            <polygon id="Stroke-34" stroke="#DD1318" points="109.2497 19.9165 114.2497 16.4995 114.2497 20.4995 109.2497 23.9165"></polygon>
                            <polygon id="Stroke-36" stroke="#DD1318" points="109.2497 23.9165 114.2497 20.4995 114.2497 24.4995 109.2497 27.9165"></polygon>
                            <polygon id="Stroke-38" stroke="#DD1318" points="109.2497 27.9165 114.2497 24.4995 114.2497 28.4995 109.2497 31.9165"></polygon>
                            <polygon id="Stroke-40" stroke="#DD1318" points="109.2497 31.9165 114.2497 28.4995 114.2497 32.4995 109.2497 35.9165"></polygon>
                            <path d="M114.2497,8.5 L114.2497,4" id="Stroke-42" stroke="#DD1318"></path>
                            <path d="M104.2497,8.5 L104.2497,4" id="Stroke-44" stroke="#DD1318"></path>
                            <path d="M124.2497,49.5 L124.2497,15.5" id="Stroke-46" stroke="#DD1318"></path>
                            <polygon id="Stroke-48" stroke="#DD1318" points="124.2497 24.9165 119.2497 21.4995 119.2497 25.4995 124.2497 28.9165"></polygon>
                            <polygon id="Stroke-50" stroke="#DD1318" points="124.2497 28.9165 119.2497 25.4995 119.2497 29.4995 124.2497 32.9165"></polygon>
                            <polygon id="Stroke-52" stroke="#DD1318" points="124.2497 32.9165 119.2497 29.4995 119.2497 33.4995 124.2497 36.9165"></polygon>
                            <polygon id="Stroke-54" stroke="#DD1318" points="124.2497 36.9165 119.2497 33.4995 119.2497 37.4995 124.2497 40.9165"></polygon>
                            <polygon id="Stroke-56" stroke="#DD1318" points="124.2497 40.9165 119.2497 37.4995 119.2497 41.4995 124.2497 44.9165"></polygon>
                            <polygon id="Stroke-58" stroke="#DD1318" points="124.2497 24.9165 129.2497 21.4995 129.2497 25.4995 124.2497 28.9165"></polygon>
                            <polygon id="Stroke-60" stroke="#DD1318" points="124.2497 28.9165 129.2497 25.4995 129.2497 29.4995 124.2497 32.9165"></polygon>
                            <polygon id="Stroke-62" stroke="#DD1318" points="124.2497 32.9165 129.2497 29.4995 129.2497 33.4995 124.2497 36.9165"></polygon>
                            <polygon id="Stroke-64" stroke="#DD1318" points="124.2497 36.9165 129.2497 33.4995 129.2497 37.4995 124.2497 40.9165"></polygon>
                            <polygon id="Stroke-66" stroke="#DD1318" points="124.2497 40.9165 129.2497 37.4995 129.2497 41.4995 124.2497 44.9165"></polygon>
                            <path d="M94.2497,49.5 L94.2497,15.5" id="Stroke-68" stroke="#DD1318"></path>
                            <polygon id="Stroke-70" stroke="#DD1318" points="94.2497 24.9165 89.2497 21.4995 89.2497 25.4995 94.2497 28.9165"></polygon>
                            <polygon id="Stroke-72" stroke="#DD1318" points="94.2497 28.9165 89.2497 25.4995 89.2497 29.4995 94.2497 32.9165"></polygon>
                            <polygon id="Stroke-74" stroke="#DD1318" points="94.2497 32.9165 89.2497 29.4995 89.2497 33.4995 94.2497 36.9165"></polygon>
                            <polygon id="Stroke-76" stroke="#DD1318" points="94.2497 36.9165 89.2497 33.4995 89.2497 37.4995 94.2497 40.9165"></polygon>
                            <polygon id="Stroke-78" stroke="#DD1318" points="94.2497 40.9165 89.2497 37.4995 89.2497 41.4995 94.2497 44.9165"></polygon>
                            <polygon id="Stroke-80" stroke="#DD1318" points="94.2497 24.9165 99.2497 21.4995 99.2497 25.4995 94.2497 28.9165"></polygon>
                            <polygon id="Stroke-82" stroke="#DD1318" points="94.2497 28.9165 99.2497 25.4995 99.2497 29.4995 94.2497 32.9165"></polygon>
                            <polygon id="Stroke-84" stroke="#DD1318" points="94.2497 32.9165 99.2497 29.4995 99.2497 33.4995 94.2497 36.9165"></polygon>
                            <polygon id="Stroke-86" stroke="#DD1318" points="94.2497 36.9165 99.2497 33.4995 99.2497 37.4995 94.2497 40.9165"></polygon>
                            <polygon id="Stroke-88" stroke="#DD1318" points="94.2497 40.9165 99.2497 37.4995 99.2497 41.4995 94.2497 44.9165"></polygon>
                        </g>
                    </g>
                </g>
            </g>
        </g>
    </g>
</svg>