<?xml version="1.0" encoding="UTF-8"?>
<svg width="95px" height="91px" viewBox="0 0 95 91" version="1.1" xmlns="http://www.w3.org/2000/svg" xmlns:xlink="http://www.w3.org/1999/xlink">
    <!-- Generator: Sketch 46.2 (44496) - http://www.bohemiancoding.com/sketch -->
    <title>Decentralized Interchange Rules</title>
    <desc>Created with Sketch.</desc>
    <defs></defs>
    <g id="Web-UI" stroke="none" stroke-width="1" fill="none" fill-rule="evenodd">
        <g id="02_Index_Karma_Web_1366px" transform="translate(-511.000000, -2272.000000)">
            <g id="Decentralized-Interchange-Rules" transform="translate(511.000000, 2272.000000)">
                <path d="M32.2041,74.1099 C32.2041,82.8649 25.1071,89.9619 16.3521,89.9619 C7.5981,89.9619 0.5001,82.8649 0.5001,74.1099 C0.5001,65.3559 7.5981,58.2579 16.3521,58.2579 C25.1071,58.2579 32.2041,65.3559 32.2041,74.1099 Z" id="Stroke-1" stroke="#000000"></path>
                <path d="M51,56.5 L51,33.5" id="Stroke-3" stroke="#000000" opacity="0.298856431"></path>
                <polyline id="Stroke-5" stroke="#090E16" points="51 28 64 28 64 13.3333333 51 0 38 13.3333333 38 28 51 28"></polyline>
                <polyline id="Stroke-6" stroke="#090E16" points="55 28 55 17 47 17 47 28"></polyline>
                <path d="M51,56.5 L70.854,68.11" id="Stroke-5" stroke="#000000" opacity="0.298856431"></path>
                <path d="M50.8545,56.5 L31.0005,68.11" id="Stroke-7" stroke="#000000" opacity="0.298856431"></path>
                <path d="M24,67 L8,83" id="Stroke-9" stroke="#DD1318"></path>
                <path d="M16,70 C16,72.209 14.209,74 12,74 C9.791,74 8,72.209 8,70 C8,67.791 9.791,66 12,66 C14.209,66 16,67.791 16,70 Z" id="Stroke-11" stroke="#DD1318"></path>
                <path d="M25,79 C25,81.209 23.209,83 21,83 C18.791,83 17,81.209 17,79 C17,76.791 18.791,75 21,75 C23.209,75 25,76.791 25,79 Z" id="Stroke-13" stroke="#DD1318"></path>
                <path d="M95,74.5 C95,79.747 90.747,84 85.5,84 C80.253,84 76,79.747 76,74.5 C76,69.253 80.253,65 85.5,65 C90.747,65 95,69.253 95,74.5" id="Fill-15" fill="#E62B1E"></path>
                <polyline id="Stroke-17" stroke="#FFFFFF" points="85.5 69.5 85.5 74.75 89 77.375"></polyline>
            </g>
        </g>
    </g>
</svg>