<?xml version="1.0" encoding="UTF-8"?>
<svg width="111px" height="99px" viewBox="0 0 111 99" version="1.1" xmlns="http://www.w3.org/2000/svg" xmlns:xlink="http://www.w3.org/1999/xlink">
    <!-- Generator: Sketch 46.2 (44496) - http://www.bohemiancoding.com/sketch -->
    <title>Decentralized Location</title>
    <desc>Created with Sketch.</desc>
    <defs></defs>
    <g id="Web-UI" stroke="none" stroke-width="1" fill="none" fill-rule="evenodd">
        <g id="02_Index_Karma_Web_1366px" transform="translate(-751.000000, -2265.000000)">
            <g id="Decentralized-Location" transform="translate(751.000000, 2265.000000)">
                <path d="M11.8954,52.5322 C4.6514,52.5322 0.4994,57.4662 0.4994,63.9892 C0.4994,67.6572 1.8434,70.2702 4.8604,72.9652 C5.0594,73.1422 5.2634,73.3252 5.4474,73.5162 C9.4494,77.6592 9.2014,82.9872 11.8954,82.9872 C14.5894,82.9872 14.3414,77.6592 18.3434,73.5162 C18.5274,73.3252 18.7324,73.1422 18.9304,72.9652 C21.9474,70.2702 23.2914,67.6572 23.2914,63.9892 C23.2914,57.4662 19.1394,52.5322 11.8954,52.5322 Z" id="Stroke-1" stroke="#DD1318"></path>
                <path d="M16.7909,64.5 C16.7909,67.261 14.5519,69.5 11.7909,69.5 C9.0299,69.5 6.7909,67.261 6.7909,64.5 C6.7909,61.739 9.0299,59.5 11.7909,59.5 C14.5519,59.5 16.7909,61.739 16.7909,64.5 Z" id="Stroke-3" stroke="#DD1318"></path>
                <path d="M100.8954,11.2134 C96.8304,11.2134 94.4994,13.9824 94.4994,17.6434 C94.4994,19.7014 95.2544,21.1684 96.9474,22.6814 C97.0584,22.7804 97.1734,22.8834 97.2764,22.9904 C99.5224,25.3164 99.3834,28.3054 100.8954,28.3054 C102.4074,28.3054 102.2684,25.3164 104.5144,22.9904 C104.6184,22.8834 104.7324,22.7804 104.8434,22.6814 C106.5374,21.1684 107.2914,19.7014 107.2914,17.6434 C107.2914,13.9824 104.9604,11.2134 100.8954,11.2134 Z" id="Stroke-5" stroke="#DD1318"></path>
                <path d="M103.7909,17.5 C103.7909,19.157 102.4479,20.5 100.7909,20.5 C99.1339,20.5 97.7909,19.157 97.7909,17.5 C97.7909,15.843 99.1339,14.5 100.7909,14.5 C102.4479,14.5 103.7909,15.843 103.7909,17.5 Z" id="Stroke-7" stroke="#DD1318"></path>
                <path d="M107.8671,35.8589 C109.1201,40.1889 109.7911,44.7659 109.7911,49.4999 C109.7911,76.5619 87.8531,98.4999 60.7911,98.4999 C45.7421,98.4999 32.2781,91.7159 23.2891,81.0389" id="Stroke-9" stroke="#000000"></path>
                <path d="M12.5755,40.7183 C16.7145,17.8463 36.7265,0.5003 60.7905,0.5003 C70.5155,0.5003 79.5785,3.3333 87.2005,8.2183" id="Stroke-11" stroke="#000000"></path>
                <path d="M78.7909,49.5 C78.7909,76.562 70.7319,98.5 60.7909,98.5 C50.8499,98.5 42.7909,76.562 42.7909,49.5 C42.7909,22.438 50.8499,0.5 60.7909,0.5 C70.7319,0.5 78.7909,22.438 78.7909,49.5 Z" id="Stroke-13" stroke="#000000" opacity="0.299988678"></path>
                <path d="M16.3304,41.9229 C24.1174,35.7679 41.0974,31.4999 60.7904,31.4999 C87.8524,31.4999 109.7904,39.5589 109.7904,49.4999 C109.7904,59.4409 87.8524,67.4999 60.7904,67.4999 C49.4994,67.4999 39.1004,66.0969 30.8144,63.7399" id="Stroke-15" stroke="#000000" opacity="0.299988678"></path>
                <path d="M95.1664,34.9019 C96.2224,39.5129 96.7914,44.4159 96.7914,49.4999 C96.7914,76.5619 80.6734,98.4999 60.7914,98.4999 C46.7074,98.4999 34.5114,87.4919 28.5964,71.4519" id="Stroke-17" stroke="#000000" opacity="0.299988678"></path>
                <path d="M24.7909,49.5 C24.7909,48.212 24.8279,46.936 24.8989,45.673 C26.3329,20.399 41.8549,0.5 60.7909,0.5 C69.8769,0.5 78.1779,5.082 84.5129,12.642" id="Stroke-19" stroke="#000000" opacity="0.301800272"></path>
                <path d="M60.7909,0.5 L60.7909,98.5" id="Stroke-21" stroke="#000000" opacity="0.299988678"></path>
            </g>
        </g>
    </g>
</svg>