<?xml version="1.0" encoding="UTF-8"?>
<svg width="111px" height="108px" viewBox="0 0 111 108" version="1.1" xmlns="http://www.w3.org/2000/svg" xmlns:xlink="http://www.w3.org/1999/xlink">
    <!-- Generator: Sketch 46.2 (44496) - http://www.bohemiancoding.com/sketch -->
    <title>Decentralized Data and App</title>
    <desc>Created with Sketch.</desc>
    <defs></defs>
    <g id="Web-UI" stroke="none" stroke-width="1" fill="none" fill-rule="evenodd">
        <g id="02_Index_Karma_Web_1366px" transform="translate(-1005.000000, -2259.000000)">
            <g id="Token-Sale-Timeline" transform="translate(186.000000, 2114.000000)">
                <g id="4" transform="translate(760.000000, 146.000000)">
                    <g id="Decentralized-Data-and-App" transform="translate(60.000000, 0.000000)">
                        <path d="M90.534371,7.84540794 C94.957371,15.4004079 92.418371,25.1114079 84.862371,29.5334079 C77.307371,33.9574079 67.597371,31.4174079 63.174371,23.8624079 C58.751371,16.3074079 61.290371,6.59640794 68.846371,2.17440794 C76.401371,-2.24859206 86.111371,0.290407937 90.534371,7.84540794 Z" id="Stroke-5" stroke="#000000"></path>
                        <path d="M45.534371,82.8454079 C49.957371,90.4004079 47.418371,100.111408 39.862371,104.533408 C32.307371,108.957408 22.597371,106.417408 18.174371,98.8624079 C13.751371,91.3074079 16.290371,81.5964079 23.846371,77.1744079 C31.401371,72.7514079 41.111371,75.2904079 45.534371,82.8454079 Z" id="Stroke-9" fill="#E62B1E"></path>
                        <path d="M86.625,98.8223074 L72,98.8223074 C71.447,98.8223074 71,98.1423299 71,97.3045005 L71,94.5178069 C71,93.6784597 71.447,93 72,93 L86.625,93 C87.178,93 87.625,93.6784597 87.625,94.5178069 L87.625,97.3045005 C87.625,98.1423299 87.178,98.8223074 86.625,98.8223074 Z" id="Stroke-49" stroke="#DD1318"></path>
                        <path d="M107.625,62.8223074 L93,62.8223074 C92.447,62.8223074 92,62.1423299 92,61.3045005 L92,58.5178069 C92,57.6784597 92.447,57 93,57 L107.625,57 C108.178,57 108.625,57.6784597 108.625,58.5178069 L108.625,61.3045005 C108.625,62.1423299 108.178,62.8223074 107.625,62.8223074 Z" id="Stroke-49-Copy-2" stroke="#DD1318"></path>
                        <path d="M39.705187,23.8223074 L25.080187,23.8223074 C24.527187,23.8223074 24.080187,23.1423299 24.080187,22.3045005 L24.080187,19.5178069 C24.080187,18.6784597 24.527187,18 25.080187,18 L39.705187,18 C40.258187,18 40.705187,18.6784597 40.705187,19.5178069 L40.705187,22.3045005 C40.705187,23.1423299 40.258187,23.8223074 39.705187,23.8223074 Z" id="Stroke-49-Copy-5" stroke="#DD1318"></path>
                        <path d="M84.625,23.8223074 L70,23.8223074 C69.447,23.8223074 69,23.1423299 69,22.3045005 L69,19.5178069 C69,18.6784597 69.447,18 70,18 L84.625,18 C85.178,18 85.625,18.6784597 85.625,19.5178069 L85.625,22.3045005 C85.625,23.1423299 85.178,23.8223074 84.625,23.8223074 Z" id="Stroke-49-Copy-4" stroke="#DD1318"></path>
                        <path d="M15.625,62.8223074 L1,62.8223074 C0.447,62.8223074 0,62.1423299 0,61.3045005 L0,58.5178069 C0,57.6784597 0.447,57 1,57 L15.625,57 C16.178,57 16.625,57.6784597 16.625,58.5178069 L16.625,61.3045005 C16.625,62.1423299 16.178,62.8223074 15.625,62.8223074 Z" id="Stroke-49-Copy-3" stroke="#DD1318"></path>
                        <path d="M39.705187,98.8223074 L25.080187,98.8223074 C24.527187,98.8223074 24.080187,98.1423299 24.080187,97.3045005 L24.080187,94.5178069 C24.080187,93.6784597 24.527187,93 25.080187,93 L39.705187,93 C40.258187,93 40.705187,93.6784597 40.705187,94.5178069 L40.705187,97.3045005 C40.705187,98.1423299 40.258187,98.8223074 39.705187,98.8223074 Z" id="Stroke-49-Copy" stroke="#FFFFFF"></path>
                        <path d="M86.625,89.8223074 L72,89.8223074 C71.447,89.8223074 71,89.1423299 71,88.3045005 L71,85.5178069 C71,84.6784597 71.447,84 72,84 L86.625,84 C87.178,84 87.625,84.6784597 87.625,85.5178069 L87.625,88.3045005 C87.625,89.1423299 87.178,89.8223074 86.625,89.8223074 Z" id="Stroke-51" stroke="#DD1318"></path>
                        <path d="M107.625,53.8223074 L93,53.8223074 C92.447,53.8223074 92,53.1423299 92,52.3045005 L92,49.5178069 C92,48.6784597 92.447,48 93,48 L107.625,48 C108.178,48 108.625,48.6784597 108.625,49.5178069 L108.625,52.3045005 C108.625,53.1423299 108.178,53.8223074 107.625,53.8223074 Z" id="Stroke-51-Copy-2" stroke="#DD1318"></path>
                        <path d="M39.705187,14.8223074 L25.080187,14.8223074 C24.527187,14.8223074 24.080187,14.1423299 24.080187,13.3045005 L24.080187,10.5178069 C24.080187,9.6784597 24.527187,9 25.080187,9 L39.705187,9 C40.258187,9 40.705187,9.6784597 40.705187,10.5178069 L40.705187,13.3045005 C40.705187,14.1423299 40.258187,14.8223074 39.705187,14.8223074 Z" id="Stroke-51-Copy-5" stroke="#DD1318"></path>
                        <path d="M84.625,14.8223074 L70,14.8223074 C69.447,14.8223074 69,14.1423299 69,13.3045005 L69,10.5178069 C69,9.6784597 69.447,9 70,9 L84.625,9 C85.178,9 85.625,9.6784597 85.625,10.5178069 L85.625,13.3045005 C85.625,14.1423299 85.178,14.8223074 84.625,14.8223074 Z" id="Stroke-51-Copy-4" stroke="#DD1318"></path>
                        <path d="M15.625,53.8223074 L1,53.8223074 C0.447,53.8223074 0,53.1423299 0,52.3045005 L0,49.5178069 C0,48.6784597 0.447,48 1,48 L15.625,48 C16.178,48 16.625,48.6784597 16.625,49.5178069 L16.625,52.3045005 C16.625,53.1423299 16.178,53.8223074 15.625,53.8223074 Z" id="Stroke-51-Copy-3" stroke="#DD1318"></path>
                        <path d="M39.705187,89.8223074 L25.080187,89.8223074 C24.527187,89.8223074 24.080187,89.1423299 24.080187,88.3045005 L24.080187,85.5178069 C24.080187,84.6784597 24.527187,84 25.080187,84 L39.705187,84 C40.258187,84 40.705187,84.6784597 40.705187,85.5178069 L40.705187,88.3045005 C40.705187,89.1423299 40.258187,89.8223074 39.705187,89.8223074 Z" id="Stroke-51-Copy" stroke="#FFFFFF"></path>
                        <path d="M73,96 L78.755,96" id="Stroke-55" stroke="#DD1318"></path>
                        <path d="M94,60 L99.755,60" id="Stroke-55-Copy-2" stroke="#DD1318"></path>
                        <path d="M26.080187,21 L31.835187,21" id="Stroke-55-Copy-5" stroke="#DD1318"></path>
                        <path d="M71,21 L76.755,21" id="Stroke-55-Copy-4" stroke="#DD1318"></path>
                        <path d="M2,60 L7.755,60" id="Stroke-55-Copy-3" stroke="#DD1318"></path>
                        <path d="M25.8577688,96 L31.6127688,96" id="Stroke-55-Copy" stroke="#FFFFFF"></path>
                        <path d="M73,87 L78.755,87" id="Stroke-57" stroke="#DD1318"></path>
                        <path d="M94,51 L99.755,51" id="Stroke-57-Copy-2" stroke="#DD1318"></path>
                        <path d="M26.080187,12 L31.835187,12" id="Stroke-57-Copy-5" stroke="#DD1318"></path>
                        <path d="M71,12 L76.755,12" id="Stroke-57-Copy-4" stroke="#DD1318"></path>
                        <path d="M2,51 L7.755,51" id="Stroke-57-Copy-3" stroke="#DD1318"></path>
                        <path d="M25.8577688,87 L31.6127688,87" id="Stroke-57-Copy" stroke="#FFFFFF"></path>
                        <path d="M86.278,96 L85,96" id="Stroke-63" stroke="#DD1318"></path>
                        <path d="M107.278,60 L106,60" id="Stroke-63-Copy-2" stroke="#DD1318"></path>
                        <path d="M39.358187,21 L38.080187,21" id="Stroke-63-Copy-5" stroke="#DD1318"></path>
                        <path d="M84.278,21 L83,21" id="Stroke-63-Copy-4" stroke="#DD1318"></path>
                        <path d="M15.278,60 L14,60" id="Stroke-63-Copy-3" stroke="#DD1318"></path>
                        <path d="M39.5788414,96 L38.3008414,96" id="Stroke-63-Copy" stroke="#FFFFFF"></path>
                        <path d="M86.278,87 L85,87" id="Stroke-65" stroke="#DD1318"></path>
                        <path d="M107.278,51 L106,51" id="Stroke-65-Copy-2" stroke="#DD1318"></path>
                        <path d="M39.358187,12 L38.080187,12" id="Stroke-65-Copy-5" stroke="#DD1318"></path>
                        <path d="M84.278,12 L83,12" id="Stroke-65-Copy-4" stroke="#DD1318"></path>
                        <path d="M15.278,51 L14,51" id="Stroke-65-Copy-3" stroke="#DD1318"></path>
                        <path d="M39.5788414,87 L38.3008414,87" id="Stroke-65-Copy" stroke="#FFFFFF"></path>
                        <path d="M22.717,77.068 L17,67" id="Stroke-121" stroke="#000000" opacity="0.298063859"></path>
                        <polyline id="Stroke-123" stroke="#000000" opacity="0.298063859" stroke-linejoin="bevel" points="25 71.5 22.7142857 77 17 75.8"></polyline>
                        <path d="M92,41 L86,30.932" id="Stroke-125" stroke="#000000" opacity="0.298063859"></path>
                        <polyline id="Stroke-127" stroke="#000000" opacity="0.298063859" stroke-linejoin="bevel" points="94 36 92 41 86.5 40"></polyline>
                        <path d="M64.5,91 L50,91" id="Stroke-129" stroke="#000000" opacity="0.298063859"></path>
                        <path d="M57.291,16 L44,16" id="Stroke-131" stroke="#000000" opacity="0.298063859"></path>
                    </g>
                </g>
            </g>
        </g>
    </g>
</svg>