<?xml version="1.0" encoding="UTF-8"?>
<svg width="151px" height="80px" viewBox="0 0 151 80" version="1.1" xmlns="http://www.w3.org/2000/svg" xmlns:xlink="http://www.w3.org/1999/xlink">
    <!-- Generator: Sketch 46.2 (44496) - http://www.bohemiancoding.com/sketch -->
    <title>Different Types of Collateral</title>
    <desc>Created with Sketch.</desc>
    <defs>
        <path d="M10.668,0 L13.332,0 L13.332,3.94475 C19.0853333,4.134625 21.364,6.24520833 22.016,8.62445833 C22.7906667,11.4415833 20.8746667,13.8040417 19.2266667,14.3814167 C21.2266667,14.8774167 23.9986667,16.3085833 23.9986667,19.61525 C23.9986667,24.1115417 20.416,27.1262917 13.332,27.1262917 L13.332,30.9987083 L10.668,30.9987083 L10.668,27.097875 L9.33466667,27.097875 L9.33466667,30.9987083 L6.66666667,30.9987083 L6.66666667,27.097875 L0.0426666667,27.097875 L0.709333333,23.25 L2.14666667,23.25 C3.32533333,23.25 3.99866667,22.1520833 3.99866667,21.0464167 L3.99866667,9.56479167 C3.99866667,8.48754167 3.35466667,7.75258333 2.18,7.75258333 L0.00133333333,7.75258333 L0.00133333333,3.87629167 L6.66666667,3.87629167 L6.66666667,0 L9.33466667,0 L9.33466667,3.87629167 L10.668,3.87629167 L10.668,0 Z M9.33466667,7.75258333 L9.33466667,14.209625 C12.28,14.209625 16.7706667,14.008125 16.7706667,10.9791667 C16.7706667,8.39454167 13.9986667,7.75258333 9.33466667,7.75258333 Z M9.33466667,16.7865 L9.33466667,23.25 C14.6253333,23.25 18.252,22.765625 18.252,20.0014583 C18.252,17.0332083 14.332,16.7865 9.33466667,16.7865 Z" id="path-1"></path>
        <path d="M10.668,0 L13.332,0 L13.332,3.94475 C19.0853333,4.134625 21.364,6.24520833 22.016,8.62445833 C22.7906667,11.4415833 20.8746667,13.8040417 19.2266667,14.3814167 C21.2266667,14.8774167 23.9986667,16.3085833 23.9986667,19.61525 C23.9986667,24.1115417 20.416,27.1262917 13.332,27.1262917 L13.332,30.9987083 L10.668,30.9987083 L10.668,27.097875 L9.33466667,27.097875 L9.33466667,30.9987083 L6.66666667,30.9987083 L6.66666667,27.097875 L0.0426666667,27.097875 L0.709333333,23.25 L2.14666667,23.25 C3.32533333,23.25 3.99866667,22.1520833 3.99866667,21.0464167 L3.99866667,9.56479167 C3.99866667,8.48754167 3.35466667,7.75258333 2.18,7.75258333 L0.00133333333,7.75258333 L0.00133333333,3.87629167 L6.66666667,3.87629167 L6.66666667,0 L9.33466667,0 L9.33466667,3.87629167 L10.668,3.87629167 L10.668,0 Z M9.33466667,7.75258333 L9.33466667,14.209625 C12.28,14.209625 16.7706667,14.008125 16.7706667,10.9791667 C16.7706667,8.39454167 13.9986667,7.75258333 9.33466667,7.75258333 Z M9.33466667,16.7865 L9.33466667,23.25 C14.6253333,23.25 18.252,22.765625 18.252,20.0014583 C18.252,17.0332083 14.332,16.7865 9.33466667,16.7865 Z" id="path-3"></path>
    </defs>
    <g id="Web-UI" stroke="none" stroke-width="1" fill="none" fill-rule="evenodd">
        <g id="02_Index_Karma_Web_1366px" transform="translate(-229.000000, -2913.000000)">
            <g id="Different-Types-of-Collateral" transform="translate(230.000000, 2914.000000)">
                <polyline id="Stroke-1" stroke="#000000" opacity="0.303781703" stroke-linejoin="bevel" points="83 65 83 78 0 78 0 39 14.4347826 39"></polyline>
                <polyline id="Stroke-2" stroke="#000000" opacity="0.303781703" stroke-linejoin="bevel" points="83 13 83 0 131 0 131 12.8046361"></polyline>
                <polyline id="Stroke-3" stroke="#000000" opacity="0.303781703" stroke-linejoin="bevel" points="136 8 131 13 126 8"></polyline>
                <polyline id="Stroke-4" stroke="#000000" opacity="0.303781703" stroke-linejoin="bevel" points="9 34 14 39 9 44"></polyline>
                <polyline id="Stroke-5" stroke="#090E16" points="36 50 49 50 49 35.3333333 36 22 23 35.3333333 23 50 36 50"></polyline>
                <polyline id="Stroke-6" stroke="#090E16" points="40 50 40 39 32 39 32 50"></polyline>
                <path d="M80.6666667,54 L80.6666667,50.097875 L79.3333333,50.097875 L79.3333333,54 L76.6666667,54 L76.6666667,50.097875 L70.0413333,50.097875 L70.708,46.25 L72.1466667,46.25 C73.3253333,46.25 74,45.1495 74,44.045125 L74,32.5635 C74,31.48625 73.3533333,30.75 72.18,30.75 L70,30.75 L70,26.875 L76.6666667,26.875 L76.6666667,23 L79.3333333,23 L79.3333333,26.875 L80.6666667,26.875 L80.6666667,23 L83.3333333,23 L83.3333333,26.9434583 C89.0866667,27.1320417 91.3653333,29.2439167 92.0186667,31.62575 C92.792,34.4402917 90.876,36.8040417 89.228,37.3814167 C91.2293333,37.8748333 94,39.3072917 94,42.6126667 C94,47.1115417 90.416,50.125 83.3333333,50.125 L83.3333333,54 L80.6666667,54 Z M79.3333333,39.7839167 L79.3333333,46.25 C84.6253333,46.25 88.2506667,45.765625 88.2506667,43.0001667 C88.2506667,40.0332083 84.3333333,39.7839167 79.3333333,39.7839167 L79.3333333,39.7839167 Z M79.3333333,37.2083333 C82.2813333,37.2083333 86.7706667,37.0068333 86.7706667,33.9791667 C86.7706667,31.3958333 84,30.75 79.3333333,30.75 L79.3333333,37.2083333 Z" id="Fill-7" fill="#DD1318"></path>
                <g id="Group-11" transform="translate(70.000000, 23.000000)">
                    <mask id="mask-2" fill="white">
                        <use xlink:href="#path-1"></use>
                    </mask>
                    <g id="Clip-10"></g>
                </g>
                <g id="Group-14" transform="translate(70.000000, 23.000000)">
                    <mask id="mask-4" fill="white">
                        <use xlink:href="#path-3"></use>
                    </mask>
                    <g id="Clip-13"></g>
                </g>
                <g id="Group-21" transform="translate(111.000000, 29.000000)" stroke="#DD1318" stroke-linejoin="bevel">
                    <polygon id="Stroke-15" points="38 19.3333333 34.0689655 11.3333333 24.8965517 11.3333333 20.9655172 19.3333333"></polygon>
                    <polygon id="Stroke-17" points="27.5172414 8.66666667 23.5862069 0.666666667 14.4137931 0.666666667 10.4827586 8.66666667"></polygon>
                    <polygon id="Stroke-19" points="17.0344828 19.3333333 13.1034483 11.3333333 3.93103448 11.3333333 0 19.3333333"></polygon>
                </g>
            </g>
        </g>
    </g>
</svg>