<?xml version="1.0" encoding="UTF-8"?>
<svg width="145px" height="98px" viewBox="0 0 145 98" version="1.1" xmlns="http://www.w3.org/2000/svg" xmlns:xlink="http://www.w3.org/1999/xlink">
    <!-- Generator: Sketch 46.2 (44496) - http://www.bohemiancoding.com/sketch -->
    <title>Total Automation</title>
    <desc>Created with Sketch.</desc>
    <defs></defs>
    <g id="Web-UI" stroke="none" stroke-width="1" fill="none" fill-rule="evenodd">
        <g id="02_Index_Karma_Web_1366px" transform="translate(-481.000000, -2900.000000)">
            <g id="Token-Sale-Timeline" transform="translate(186.000000, 2114.000000)">
                <g id="2-copy" transform="translate(253.000000, 787.000000)">
                    <g id="Total-Automation" transform="translate(43.000000, 0.000000)">
                        <path d="M72,60.9159194 C61.0013458,60.9159194 52.0862231,51.998216 52.0862231,41.0006103 C52.0862231,30.001784 61.0013458,21.0853012 72,21.0853012 C82.9986542,21.0853012 91.9137769,30.001784 91.9137769,41.0006103 C91.9137769,51.998216 82.9986542,60.9159194 72,60.9159194 L72,60.9159194 M108.748028,34.3141637 L101.928643,34.1689123 C100.942414,34.1481621 100.074581,33.5012441 99.7889647,32.5577203 C99.234821,30.7280409 98.5073548,28.9752594 97.6224337,27.3189052 C97.1573923,26.4486174 97.3124061,25.3781513 97.9947108,24.6653209 L102.713476,19.7426412 C103.578868,18.8393972 103.563001,17.4100746 102.6793,16.5251397 L96.4750876,10.32083 C95.5901665,9.43589503 94.1608663,9.42124783 93.2576365,10.2866532 L88.3338132,15.0042721 C87.6222146,15.6878081 86.5517651,15.8428243 85.681491,15.3777757 C84.0251627,14.4928407 82.2724086,13.7653631 80.4427579,13.2112107 C79.4992489,12.9255903 78.852341,12.0577438 78.8315911,11.071499 L78.686342,4.25078635 C78.6594892,2.99967138 77.637863,2 76.3867677,2 L67.6132323,2 C66.362137,2 65.3405108,2.99967138 65.313658,4.25078635 L65.1684089,11.071499 C65.147659,12.0577438 64.5007511,12.9255903 63.5572421,13.2112107 C61.7275914,13.7653631 59.9748373,14.4928407 58.318509,15.3777757 C57.4482349,15.8428243 56.3777854,15.6878081 55.6661868,15.0042721 L50.7423635,10.2866532 C49.8391337,9.42124783 48.4098335,9.43589503 47.5249124,10.32083 L41.3206998,16.5251397 C40.4369992,17.4100746 40.4211317,18.8393972 41.2865235,19.7426412 L46.0052892,24.6653209 C46.6875939,25.3781513 46.8426077,26.4486174 46.3775663,27.3189052 C45.4926452,28.9752594 44.765179,30.7280409 44.2110353,32.5577203 C43.9254194,33.5012441 43.0575864,34.1481621 42.071357,34.1689123 L35.2519717,34.3141637 C34.0008763,34.3410169 33,35.362659 33,36.6125534 L33,45.3874466 C33,46.6385616 34.0008763,47.6602037 35.2519717,47.6870569 L42.071357,47.8310877 C43.0575864,47.8518379 43.9254194,48.4987559 44.2110353,49.4435003 C44.765179,51.2719591 45.4926452,53.0247406 46.3775663,54.6823154 C46.8426077,55.5526032 46.6875939,56.6218487 46.0052892,57.3346791 L41.2865235,62.2585794 C40.4211317,63.1606028 40.4369992,64.591146 41.3206998,65.4748603 L47.5249124,71.67917 C48.4098335,72.564105 49.8391337,72.5787522 50.7423635,71.7133468 L55.6661868,66.9957279 C56.3777854,66.3121919 57.4482349,66.1583963 58.318509,66.6222243 C59.9748373,67.5071593 61.7275914,68.2358575 63.5572421,68.7900099 C64.5007511,69.0756303 65.147659,69.9434768 65.1684089,70.9297216 L65.313658,77.7492137 C65.3405108,79.0003286 66.362137,80 67.6132323,80 L76.3867677,80 C77.637863,80 78.6594892,79.0003286 78.686342,77.7492137 L78.8315911,70.9297216 C78.852341,69.9434768 79.4992489,69.0756303 80.4427579,68.7900099 C82.2724086,68.2358575 84.0251627,67.5071593 85.681491,66.6222243 C86.5517651,66.1583963 87.6222146,66.3121919 88.3338132,66.9957279 L93.2576365,71.7133468 C94.1608663,72.5787522 95.5901665,72.564105 96.4750876,71.67917 L102.6793,65.4748603 C103.563001,64.591146 103.578868,63.1606028 102.713476,62.2585794 L97.9947108,57.3346791 C97.3124061,56.6218487 97.1573923,55.5526032 97.6224337,54.6823154 C98.5073548,53.0247406 99.234821,51.2719591 99.7889647,49.4435003 C100.074581,48.4987559 100.942414,47.8518379 101.928643,47.8310877 L108.748028,47.6870569 C109.999124,47.6602037 111,46.6385616 111,45.3874466 L111,36.6125534 C111,35.362659 109.999124,34.3410169 108.748028,34.3141637 Z" id="Stroke-1" stroke="#DD1318"></path>
                        <circle id="Oval" fill="#E62B1E" cx="72" cy="41" r="13"></circle>
                        <path d="M120.542298,28.2763135 C115.418783,26.3661987 112.814552,20.6661929 114.724645,15.5426194 C116.633525,10.419046 122.334679,7.81357177 127.458194,9.72368655 C132.580495,11.6338013 135.18594,17.3350207 133.27706,22.4585941 C131.366967,27.580954 125.665813,30.1864282 120.542298,28.2763135 Z M142.279011,22.2668545 L139.126265,21.0144794 C138.671192,20.8336616 138.379945,20.3822241 138.410284,19.8919532 C138.469746,18.9441771 138.435768,18.0012551 138.310774,17.0765363 C138.245244,16.589906 138.502512,16.1178382 138.945449,15.9054684 L141.997472,14.4310152 C142.556909,14.1603953 142.798401,13.4917338 142.539919,12.9262233 L140.726908,8.95915522 C140.468427,8.39364475 139.805841,8.13880097 139.234269,8.38393641 L136.122783,9.72732717 C135.671351,9.92149386 135.147107,9.80863447 134.821882,9.44093131 C134.204196,8.7407177 133.513698,8.09754055 132.757671,7.5211082 C132.368128,7.225004 132.217651,6.7080352 132.37905,6.24567578 L133.495495,3.04313899 C133.700582,2.45578476 133.398413,1.81260761 132.814706,1.59538363 L128.728758,0.0723886836 C128.145051,-0.144835297 127.495813,0.142774107 127.266457,0.721633542 L126.015309,3.87320157 C125.83328,4.32949329 125.381848,4.62074332 124.891582,4.58919123 C123.945031,4.53094122 123.000906,4.56492039 122.076198,4.68870166 C121.589573,4.75544646 121.118724,4.49696205 120.905143,4.05523284 L119.430707,1.0019617 C119.16009,0.44251893 118.49265,0.201024113 117.927146,0.460722057 L113.960123,2.27253995 C113.393405,2.53102435 113.138564,3.19483171 113.384911,3.76519635 L114.727072,6.87793105 C114.92245,7.32815505 114.808379,7.85361865 114.44068,8.17763431 C113.741688,8.79654062 113.097304,9.4870459 112.522092,10.2418689 C112.224778,10.6326294 111.709028,10.7831085 111.245461,10.6217075 L108.042961,9.50524903 C107.456827,9.30016046 106.813657,9.60233237 106.596435,10.1848324 L105.072244,14.2720412 C104.855023,14.8545412 105.143842,15.5037861 105.721482,15.734359 L108.873014,16.9855206 C109.3293,17.1663384 109.620547,17.6177759 109.590209,18.1080468 C109.530746,19.0558229 109.565938,19.9987449 109.689718,20.9234637 C109.755249,21.410094 109.496767,21.8809482 109.055043,22.0957451 L106.00302,23.5689848 C105.443584,23.8396047 105.202092,24.5082662 105.460573,25.0737767 L107.27237,29.0408448 C107.530852,29.6063553 108.194652,29.8624126 108.76501,29.6160636 L111.877709,28.2726728 C112.327928,28.0785061 112.854599,28.1913655 113.178611,28.5590687 C113.796297,29.2592823 114.486794,29.9024595 115.242822,30.4776783 C115.632364,30.774996 115.782842,31.2919648 115.621443,31.7543242 L114.504997,34.956861 C114.299911,35.5442152 114.602079,36.1873924 115.184572,36.4046164 L119.272948,37.9276113 C119.855442,38.1448353 120.504679,37.8572259 120.734036,37.2783665 L121.985183,34.1267984 C122.165999,33.6717203 122.618645,33.3792567 123.107696,33.4095952 C124.056675,33.4702723 124.998373,33.4350796 125.924295,33.3100848 C126.409706,33.2445535 126.881768,33.5030379 127.095349,33.9447672 L128.569786,36.9980383 C128.839189,37.5574811 129.507843,37.7989759 130.073347,37.5404915 L134.041583,35.72746 C134.605874,35.4689756 134.861928,34.8051683 134.615582,34.2348036 L133.272206,31.122069 C133.078042,30.6718449 133.192114,30.1463814 133.559812,29.8211522 C134.260018,29.2034594 134.901974,28.5129541 135.4784,27.7581311 C135.775714,27.3673706 136.292677,27.2168915 136.755032,27.3782925 L139.957532,28.494751 C140.543666,28.6998395 141.186836,28.3976676 141.404057,27.8151676 L142.928248,23.7279588 C143.144256,23.1454588 142.85665,22.4962139 142.279011,22.2668545 Z" id="Stroke-3" stroke="#000000"></path>
                        <path d="M15.5422983,73.276317 C10.4187834,71.366203 7.81333891,65.6649857 9.72343187,60.5414142 C11.6335248,55.4190562 17.3346791,52.8135829 22.458194,54.723697 C27.5804954,56.633811 30.1859399,62.3338147 28.2758469,67.4573863 C26.365754,72.5809578 20.6658133,75.1864311 15.5422983,73.276317 Z M37.2790107,67.2656468 L34.1262651,66.0144856 C33.6711921,65.833668 33.3787319,65.3810171 33.4102836,64.8919599 C33.4697465,63.9441841 33.4345542,63.0012625 33.3107743,62.076544 C33.2452438,61.5899139 33.5025117,61.1178463 33.9454494,60.904263 L36.9974722,59.4310238 C37.5569086,59.1604041 37.7984006,58.4917428 37.5399192,57.9262326 L35.7269085,53.9591659 C35.468427,53.3936557 34.8058408,53.1375984 34.2342691,53.3839473 L31.1215699,54.7273376 C30.6713511,54.9215042 30.1458935,54.8086449 29.8218815,54.4409418 C29.2029823,53.7407285 28.5136984,53.0975516 27.7576705,52.5211194 C27.368128,52.2250153 27.2176506,51.7080467 27.3778363,51.2456875 L28.4954955,48.0431519 C28.6993682,47.4557979 28.3971997,46.8126209 27.8147063,46.595397 L23.7275442,45.0724027 C23.1450508,44.8551788 22.4958134,45.1427881 22.2664566,45.7204337 L21.0140958,48.8732141 C20.8332801,49.3282922 20.3818477,49.6207556 19.8915824,49.5892035 C18.9438171,49.52974 18.0009059,49.5649327 17.0761976,49.6887139 C16.5895729,49.7554587 16.1187241,49.4969744 15.9051432,49.0552454 L14.4307067,46.0019753 C14.16009,45.4425328 13.4926496,45.201038 12.9259321,45.4595223 L8.95890928,47.2725531 C8.39340526,47.5310374 8.13856439,48.1948445 8.38491056,48.765209 L9.72707246,51.8779425 C9.92245046,52.3281664 9.80837883,52.8536298 9.44067987,53.1776453 C8.74047425,53.7965514 8.09730444,54.4870564 7.5220922,55.2418791 C7.22477786,55.6314259 6.70781496,55.781905 6.24546081,55.6217176 L3.0429606,54.5052595 C2.45561308,54.300171 1.8136568,54.6023428 1.59522177,55.1848427 L0.0722442118,59.2720499 C-0.144977289,59.8545498 0.14384236,60.5037944 0.721481657,60.7331537 L3.8730137,61.9855284 C4.32930021,62.166346 4.62054691,62.6177834 4.59020871,63.1080541 C4.53074584,64.0558299 4.56472463,64.9987515 4.689718,65.92347 C4.75524851,66.4101001 4.49676706,66.8809542 4.05504289,67.0945374 L1.00302014,68.5689902 C0.44358376,68.8396099 0.202091701,69.5082712 0.460573151,70.0737814 L2.27237036,74.0408481 C2.53085181,74.6063583 3.19465159,74.861202 3.76500972,74.6160667 L6.87770887,73.2726764 C7.32792773,73.0772963 7.85338533,73.1913691 8.17861081,73.5590722 C8.79629653,74.2592855 9.48679393,74.9024624 10.2416083,75.477681 C10.6323643,75.7749987 10.7828418,76.2919673 10.6214425,76.7543265 L9.50499685,79.9568621 C9.29991063,80.5442161 9.60207908,81.1873931 10.1845725,81.404617 L14.2717346,82.9276113 C14.8554415,83.1448352 15.504679,82.8572259 15.7340357,82.2783667 L16.985183,79.1267999 C17.1659987,78.6705083 17.6186446,78.3792584 18.1076964,78.4095969 C19.0554617,78.4690604 19.9983729,78.4350813 20.9242947,78.3100865 C21.4097059,78.2445553 21.8817682,78.5030396 22.0953492,78.9447687 L23.5685721,81.9980387 C23.8391888,82.5574812 24.5078427,82.7977624 25.0733467,82.5392781 L29.0403695,80.7274609 C29.6058736,80.4689766 29.8619279,79.8051695 29.6155818,79.234805 L28.2722064,76.1220715 C28.0780419,75.6718476 28.1909,75.1463842 28.5598125,74.8211552 C29.2588046,74.2034626 29.9019744,73.5129576 30.4784001,72.7581349 C30.7757145,72.3673746 31.2914639,72.2168954 31.7550315,72.3782964 L34.9575317,73.4947545 C35.5436657,73.699843 36.1868355,73.3976712 36.404057,72.8151713 L37.9282481,68.7279641 C38.1442561,68.1454642 37.85665,67.4962196 37.2790107,67.2656468 Z" id="Stroke-5" stroke="#000000"></path>
                        <polyline id="Stroke-10" stroke="#000000" opacity="0.295006793" points="19 87.8946087 19 96 71 96 71 82"></polyline>
                        <polyline id="Stroke-12" stroke="#000000" opacity="0.295006793" points="111 62 124 62 124 40"></polyline>
                        <polyline id="Stroke-14" stroke="#000000" opacity="0.295006793" stroke-linejoin="bevel" points="14 93 19 88 24 93"></polyline>
                        <polyline id="Stroke-16" stroke="#000000" opacity="0.295006793" stroke-linejoin="bevel" points="116 67 111 62 116 57"></polyline>
                    </g>
                </g>
            </g>
        </g>
    </g>
</svg>