<?xml version="1.0" encoding="UTF-8"?>
<svg width="112px" height="116px" viewBox="0 0 112 116" version="1.1" xmlns="http://www.w3.org/2000/svg" xmlns:xlink="http://www.w3.org/1999/xlink">
    <!-- Generator: Sketch 46.2 (44496) - http://www.bohemiancoding.com/sketch -->
    <title>Smart Scoring</title>
    <desc>Created with Sketch.</desc>
    <defs>
        <polygon id="path-1" points="159.915152 0.862412861 159.915152 72.1649402 -7.2281451e-05 72.1649402 -7.2281451e-05 0.862412861 159.915152 0.862412861"></polygon>
    </defs>
    <g id="Web-UI" stroke="none" stroke-width="1" fill="none" fill-rule="evenodd">
        <g id="02_Index_Karma_Web_1366px" transform="translate(-754.000000, -2896.000000)">
            <g id="Token-Sale-Timeline" transform="translate(186.000000, 2114.000000)">
                <g id="3-copy" transform="translate(507.000000, 783.000000)">
                    <g id="Smart-Scoring" transform="translate(30.000000, 0.000000)">
                        <polyline id="Stroke-1" stroke="#000000" opacity="0.304574275" stroke-linejoin="bevel" points="83 40 88 36 93 40"></polyline>
                        <path d="M139,40 C139,30.8028333 131.116857,22.9583333 121,23 C119.431786,22.9583333 117.553286,23.290625 116,24 C114.884728,14.3863305 108.818658,6.31929964 100.360908,2.45345959 C96.9135222,0.877740296 93.0687867,0 89,0 C78.3452143,0 69.0000714,6.463375 65,16 C64.659,15.72525 55.5,14.5 54,23 C44.8005714,23.0489583 37,30.8547917 37,40 C37,49.9525 44.5613571,57.6495833 54,58 L122,58 C131.441071,57.6471667 139,49.9512917 139,40 Z" id="Stroke-3" stroke="#DD1318"></path>
                        <path d="M116,24 C115.972424,24.6967059 116,25.4014631 116,26 C116,29.3855629 115.244,32.8495993 114,36" id="Stroke-5" stroke="#DD1318"></path>
                        <path d="M54,23 C62.8365714,23 70,30.1634286 70,39" id="Stroke-7" stroke="#DD1318"></path>
                        <path d="M88,92 L88,36" id="Stroke-9" stroke="#000000" opacity="0.304574275" stroke-linejoin="bevel"></path>
                        <polyline id="Stroke-11" stroke="#000000" opacity="0.304574275" stroke-linejoin="bevel" points="101 46 101 84 126 84"></polyline>
                        <polyline id="Stroke-13" stroke="#000000" opacity="0.304574275" stroke-linejoin="bevel" points="74 46 74 84 49 84"></polyline>
                        <path d="M142,85 C142,89.4182857 138.418286,93 134,93 C129.581714,93 126,89.4182857 126,85 C126,80.5817143 129.581714,77 134,77 C138.418286,77 142,80.5817143 142,85 Z" id="Stroke-15" stroke="#000000" stroke-linejoin="bevel"></path>
                        <path d="M48,85 C48,89.4182857 44.4182857,93 40,93 C35.5817143,93 32,89.4182857 32,85 C32,80.5817143 35.5817143,77 40,77 C44.4182857,77 48,80.5817143 48,85 Z" id="Stroke-17" stroke="#000000" stroke-linejoin="bevel"></path>
                        <path d="M100,103 C100,109.6276 94.6276,115 88,115 C81.3724,115 76,109.6276 76,103 C76,96.3724 81.3724,91 88,91 C94.6276,91 100,96.3724 100,103" id="Fill-19" fill="#DD1318"></path>
                        <g id="Group-23" transform="translate(0.000000, 1.000000)">
                            <mask id="mask-2" fill="white">
                                <use xlink:href="#path-1"></use>
                            </mask>
                            <g id="Clip-22"></g>
                        </g>
                    </g>
                </g>
            </g>
        </g>
    </g>
</svg>