<?xml version="1.0" encoding="UTF-8"?>
<svg width="115px" height="98px" viewBox="0 0 115 98" version="1.1" xmlns="http://www.w3.org/2000/svg" xmlns:xlink="http://www.w3.org/1999/xlink">
    <!-- Generator: Sketch 46.2 (44496) - http://www.bohemiancoding.com/sketch -->
    <title>Mutual Responsibility</title>
    <desc>Created with Sketch.</desc>
    <defs></defs>
    <g id="Web-UI" stroke="none" stroke-width="1" fill="none" fill-rule="evenodd">
        <g id="02_Index_Karma_Web_1366px" transform="translate(-991.000000, -2901.000000)">
            <g id="Token-Sale-Timeline" transform="translate(186.000000, 2114.000000)">
                <g id="4-copy" transform="translate(760.000000, 788.000000)">
                    <g id="Mutual-Responsibility" transform="translate(45.000000, 0.000000)">
                        <path d="M24.3331,84.8657 C15.9921,77.6737 10.1521,67.6597 8.2951,56.3067" id="Stroke-1" stroke="#000000" opacity="0.295855978" stroke-linejoin="bevel"></path>
                        <path d="M102.731,57.9653 C102.605,58.5953 102.466,59.2213 102.316,59.8423 C99.963,69.5513 94.659,78.1073 87.406,84.5063" id="Stroke-3" stroke="#000000" opacity="0.295855978" stroke-linejoin="bevel"></path>
                        <path d="M43.774,1.9839 C47.576,1.0149 51.56,0.4999 55.664,0.4999 C60.045,0.4999 64.29,1.0869 68.323,2.1869" id="Stroke-5" stroke="#000000" opacity="0.295855978" stroke-linejoin="bevel"></path>
                        <path d="M65.1637,48 C65.1637,52.971 61.1347,57 56.1637,57 C51.1927,57 47.1637,52.971 47.1637,48 C47.1637,43.029 51.1927,39 56.1637,39 C61.1347,39 65.1637,43.029 65.1637,48" id="Fill-7" fill="#DD1318"></path>
                        <path d="M30.2457,77.0933 L36.1637,77.0933" id="Stroke-9" stroke="#000000"></path>
                        <path d="M30.1637,92.5 L35.7277,92.564" id="Stroke-11" stroke="#000000"></path>
                        <path d="M35.1637,90 L35.1637,90.456 C35.1637,93.794 37.8697,96.5 41.2077,96.5 L72.6637,96.5 L72.6637,91.5 L60.1637,91.5" id="Stroke-13" stroke="#000000"></path>
                        <polyline id="Stroke-15" stroke="#000000" points="70.1637 91.5 81.6637 91.5 81.6637 86.5 61.1637 86.5"></polyline>
                        <polyline id="Stroke-17" stroke="#000000" points="72.1637 86.5 81.6637 86.5 81.6637 80.5 59.1637 80.5"></polyline>
                        <polyline id="Stroke-19" stroke="#000000" points="69.7003 80.5 76.6633 80.5 76.6633 75 53.6633 75"></polyline>
                        <path d="M34.6637,82.5 L34.6637,82.5 C34.6637,78.846 36.7997,75.529 40.1257,74.017 L45.6637,71.5 L60.6637,64.5 L62.6637,68.5 L52.6637,75.5 L47.6637,87.5" id="Stroke-21" stroke="#000000"></path>
                        <path d="M102.6549,52.0586 L98.4699,47.8736" id="Stroke-23" stroke="#DD1318"></path>
                        <path d="M113.607,41.2227 L109.717,37.2427" id="Stroke-25" stroke="#DD1318"></path>
                        <path d="M108.3033,39.4551 L108.6253,39.1331 C110.9863,36.7721 110.9863,32.9451 108.6253,30.5851 L86.3833,8.3421 L82.8473,11.8781 L91.6863,20.7171" id="Stroke-27" stroke="#DD1318"></path>
                        <polyline id="Stroke-29" stroke="#DD1318" points="84.6153 13.6455 76.4843 5.5135 72.9483 9.0495 87.4443 23.5445"></polyline>
                        <polyline id="Stroke-31" stroke="#DD1318" points="79.6656 15.7671 72.9486 9.0491 68.7056 13.2921 84.6156 29.2021"></polyline>
                        <polyline id="Stroke-33" stroke="#DD1318" points="77.1651 21.7515 72.2411 16.8275 68.3521 20.7165 84.6161 36.9805"></polyline>
                        <path d="M103.3541,45.1118 L103.3541,45.1118 C100.7701,47.6958 96.9151,48.5308 93.4931,47.2478 L87.7971,45.1118 L72.2411,39.4548 L73.6551,35.2128 L85.6761,37.3338 L97.6971,32.3838" id="Stroke-35" stroke="#DD1318"></path>
                        <path d="M47.252,15.1113 L43.067,19.2963" id="Stroke-37" stroke="#000000"></path>
                        <path d="M36.4161,4.1587 L32.4361,8.0477" id="Stroke-39" stroke="#000000"></path>
                        <path d="M34.648,9.4619 L34.326,9.1399 C31.965,6.7789 28.139,6.7789 25.778,9.1399 L3.536,31.3819 L7.071,34.9179 L15.91,26.0789" id="Stroke-41" stroke="#000000"></path>
                        <polyline id="Stroke-43" stroke="#000000" points="8.839 33.1504 0.707 41.2814 4.243 44.8174 18.738 30.3214"></polyline>
                        <polyline id="Stroke-45" stroke="#000000" points="10.9601 38.1001 4.2431 44.8171 8.4851 49.0601 24.3951 33.1501"></polyline>
                        <polyline id="Stroke-47" stroke="#000000" points="16.9444 40.6006 12.0204 45.5246 15.9094 49.4136 32.1734 33.1506"></polyline>
                        <path d="M40.3053,14.4121 L40.3053,14.4121 C42.8883,16.9951 43.7243,20.8511 42.4413,24.2721 L40.3053,29.9681 L34.6483,45.5241 L30.4053,44.1101 L32.5273,32.0891 L27.5773,20.0691" id="Stroke-49" stroke="#000000"></path>
                    </g>
                </g>
            </g>
        </g>
    </g>
</svg>