<?xml version="1.0" encoding="UTF-8"?>
<svg width="101px" height="71px" viewBox="0 0 101 71" version="1.1" xmlns="http://www.w3.org/2000/svg" xmlns:xlink="http://www.w3.org/1999/xlink">
    <!-- Generator: Sketch 46.2 (44496) - http://www.bohemiancoding.com/sketch -->
    <title>Business Development</title>
    <desc>Created with Sketch.</desc>
    <defs></defs>
    <g id="Web-UI" stroke="none" stroke-width="1" fill="none" fill-rule="evenodd">
        <g id="02_Index_Karma_Web_1366px" transform="translate(-254.000000, -3726.000000)">
            <g id="Token-Sale-Timeline" transform="translate(186.000000, 2114.000000)">
                <g id="1-copy-2" transform="translate(0.000000, 1612.000000)">
                    <g id="Business-Development" transform="translate(68.000000, 0.000000)">
                        <g id="Group-5" transform="translate(0.000000, 0.043800)" stroke="#DD1318">
                            <polyline id="Stroke-1" points="0.5163 63.5392 25.5163 38.5392 35.5163 48.5392 54.0163 30.0392 62.5163 38.5392 100.0163 1.0392"></polyline>
                            <polyline id="Stroke-3" points="94.8435 0.4562 100.3605 0.5962 100.5005 6.1132"></polyline>
                        </g>
                        <polygon id="Fill-6" fill="#DD1318" points="77.0163 32.083 77.0163 70.083 93.0163 70.083 93.0163 15.583"></polygon>
                        <polyline id="Stroke-7" stroke="#000000" stroke-linejoin="bevel" points="71.0163 39.583 71.0163 70.083 55.0163 70.083 55.0163 41.583"></polyline>
                        <polyline id="Stroke-8" stroke="#000000" stroke-linejoin="bevel" points="49.0163 45.583 49.0163 70.083 33.0163 70.083 33.0163 53.583"></polyline>
                        <polyline id="Stroke-9" stroke="#000000" stroke-linejoin="bevel" points="27.0163 47.5835 27.0163 70.0835 11.0163 70.0835 11.0163 60.0835"></polyline>
                    </g>
                </g>
            </g>
        </g>
    </g>
</svg>