<?xml version="1.0" encoding="UTF-8"?>
<svg width="24px" height="24px" viewBox="0 0 24 24" version="1.1" xmlns="http://www.w3.org/2000/svg" xmlns:xlink="http://www.w3.org/1999/xlink">
    <!-- Generator: Sketch 46.2 (44496) - http://www.bohemiancoding.com/sketch -->
    <title>github</title>
    <desc>Created with Sketch.</desc>
    <defs></defs>
    <g id="Web-UI" stroke="none" stroke-width="1" fill="none" fill-rule="evenodd" opacity="0.502604167">
        <g id="01_Tokensale_Karma_Web_1366px" transform="translate(-996.000000, -10676.000000)" fill-rule="nonzero" fill="#090E16">
            <g id="Contacts" transform="translate(203.000000, 10676.000000)">
                <path d="M805,0 C798.374,0 793,5.373 793,12 C793,17.302 796.438,21.8 801.207,23.387 C801.806,23.498 802,23.126 802,22.81 L802,20.576 C798.662,21.302 797.967,19.16 797.967,19.16 C797.421,17.773 796.634,17.404 796.634,17.404 C795.545,16.659 796.717,16.675 796.717,16.675 C797.922,16.759 798.556,17.912 798.556,17.912 C799.626,19.746 801.363,19.216 802.048,18.909 C802.155,18.134 802.466,17.604 802.81,17.305 C800.145,17 797.343,15.971 797.343,11.374 C797.343,10.063 797.812,8.993 798.579,8.153 C798.455,7.85 798.044,6.629 798.696,4.977 C798.696,4.977 799.704,4.655 801.997,6.207 C802.954,5.941 803.98,5.808 805,5.803 C806.02,5.808 807.047,5.941 808.006,6.207 C810.297,4.655 811.303,4.977 811.303,4.977 C811.956,6.63 811.545,7.851 811.421,8.153 C812.191,8.993 812.656,10.064 812.656,11.374 C812.656,15.983 809.849,16.998 807.177,17.295 C807.607,17.667 808,18.397 808,19.517 L808,22.81 C808,23.129 808.192,23.504 808.801,23.386 C813.566,21.797 817,17.3 817,12 C817,5.373 811.627,0 805,0 Z" id="github"></path>
            </g>
        </g>
    </g>
</svg>