<?xml version="1.0" encoding="UTF-8"?>
<svg width="24px" height="22px" viewBox="0 0 24 22" version="1.1" xmlns="http://www.w3.org/2000/svg" xmlns:xlink="http://www.w3.org/1999/xlink">
    <!-- Generator: Sketch 46.2 (44496) - http://www.bohemiancoding.com/sketch -->
    <title>kakaotalk</title>
    <desc>Created with Sketch.</desc>
    <defs></defs>
    <g id="Web-UI" stroke="none" stroke-width="1" fill="none" fill-rule="evenodd" opacity="0.502604167">
        <g id="01_Tokensale_Karma_Web_1366px" transform="translate(-548.000000, -10677.000000)" fill-rule="nonzero" fill="#090E16">
            <g id="Contacts" transform="translate(203.000000, 10676.000000)">
                <path d="M357,1 C363.627462,1 369,5.20794248 369,10.3986131 C369,15.5893984 363.627462,19.7972262 357,19.7972262 C356.272615,19.7972262 355.560346,19.74668 354.868615,19.64937 C354.176192,20.1340863 350.175692,22.9254744 349.798154,22.9778544 C349.798154,22.9778544 349.643308,23.0376846 349.511654,22.9606618 C349.38,22.8836391 349.403885,22.6816835 349.403885,22.6816835 C349.443577,22.4129061 350.440962,18.9915817 350.624769,18.3618746 C347.246077,16.6991224 345,13.7544911 345,10.3986131 C345,5.20794248 350.372538,1 357,1 Z M350.042561,13.6666667 C350.41253,13.6666667 350.713402,13.3764078 350.713402,13.0195137 L350.713402,8.99372549 L351.760137,8.99372549 C352.123062,8.99372549 352.418455,8.69601255 352.418455,8.33019608 C352.418455,7.96437961 352.123174,7.66666667 351.760137,7.66666667 L348.324985,7.66666667 C347.96206,7.66666667 347.666667,7.96437961 347.666667,8.33019608 C347.666667,8.69601255 347.961948,8.99372549 348.324985,8.99372549 L349.37172,8.99372549 L349.37172,13.0195137 C349.37172,13.3764078 349.672592,13.6666667 350.042561,13.6666667 Z M355.92494,13.6578573 L355.92494,13.6578573 C355.92494,13.6578573 355.924828,13.6578573 355.92494,13.6578573 C356.07207,13.6579707 356.217502,13.6261162 356.351371,13.5644549 C356.5363,13.4785067 356.714072,13.2414431 356.509913,12.6008408 L354.905933,8.3362949 C354.792673,8.01113725 354.449314,7.67671843 354.011143,7.66677961 C353.574202,7.67683137 353.230844,8.01113725 353.117807,8.33561725 L351.513156,12.6020831 C351.309444,13.2412173 351.487217,13.4781678 351.672145,13.564342 C351.805982,13.626113 351.951431,13.6580095 352.098576,13.6578573 C352.378317,13.6578573 352.592203,13.543222 352.656492,13.3590149 L352.988894,12.4799937 L355.034511,12.4801067 L355.366689,13.3585631 C355.431201,13.543109 355.6452,13.6578573 355.92494,13.6578573 Z M354.68176,11.2797678 L354.68176,11.2797678 L353.341644,11.2797678 L354.011702,9.35694431 L354.68176,11.2797678 Z M357.58952,13.5678431 L359.7418,13.5678431 C360.09634,13.5678431 360.38469,13.2891043 360.38469,12.9466667 C360.38469,12.604229 360.09634,12.3254902 359.7418,12.3254902 L358.316264,12.3254902 L358.316264,8.34431373 C358.316264,7.97059137 358.009019,7.66666667 357.631447,7.66666667 C357.253876,7.66666667 356.946631,7.97059137 356.946631,8.34431373 L356.946631,12.9466667 C356.946631,13.2891043 357.23498,13.5678431 357.58952,13.5678431 Z M361.316487,13.6578573 L361.316487,13.6578573 C361.686945,13.6573594 361.987121,13.354088 361.987552,12.9798714 L361.987552,11.5013584 L362.220333,11.2662149 L363.793567,13.3718902 C363.919897,13.5423274 364.118681,13.6422458 364.329457,13.6412549 C364.475172,13.6416146 364.61696,13.5935549 364.732968,13.5044831 C364.875365,13.3966348 364.969099,13.2356943 364.993254,13.0575749 C365.018535,12.8795664 364.972144,12.698748 364.864452,12.5555514 L363.213178,10.3457443 L364.741912,8.80172549 C364.84701,8.69544784 364.899671,8.54896314 364.889944,8.38915137 C364.880329,8.2306949 364.810226,8.07811137 364.692717,7.95952314 C364.566711,7.83235137 364.398553,7.75939137 364.231067,7.75939137 C364.087507,7.75939137 363.95524,7.81292549 363.858974,7.91016784 L361.987328,9.80080314 L361.987328,8.34431373 C361.987328,7.97059137 361.686456,7.66666667 361.316487,7.66666667 C360.946519,7.66666667 360.645647,7.97059137 360.645647,8.34431373 L360.645647,12.9802102 C360.645647,13.3539325 360.946519,13.6578573 361.316487,13.6578573 Z" id="kakaotalk"></path>
            </g>
        </g>
    </g>
</svg>