<?xml version="1.0" encoding="UTF-8"?>
<svg width="24px" height="21px" viewBox="0 0 24 21" version="1.1" xmlns="http://www.w3.org/2000/svg" xmlns:xlink="http://www.w3.org/1999/xlink">
    <!-- Generator: Sketch 46.2 (44496) - http://www.bohemiancoding.com/sketch -->
    <title>Medium</title>
    <desc>Created with Sketch.</desc>
    <defs></defs>
    <g id="Web-UI" stroke="none" stroke-width="1" fill="none" fill-rule="evenodd" opacity="0.502604167">
        <g id="01_Tokensale_Karma_Web_1366px" transform="translate(-660.000000, -10678.000000)" fill-rule="nonzero" fill="#090E16">
            <g id="Contacts" transform="translate(203.000000, 10676.000000)">
                <path d="M464.995536,5.79017857 L464.995536,21.5 C464.995536,21.7232143 464.939732,21.9129464 464.828125,22.0691964 C464.716518,22.2254464 464.553571,22.3035714 464.339286,22.3035714 C464.1875,22.3035714 464.040179,22.2678571 463.897321,22.1964286 L457.669643,19.0758929 C457.482143,18.9866071 457.323661,18.8370536 457.194196,18.6272321 C457.064732,18.4174107 457,18.2098214 457,18.0044643 L457,2.73660714 C457,2.55803571 457.044643,2.40625 457.133929,2.28125 C457.223214,2.15625 457.352679,2.09375 457.522321,2.09375 C457.647321,2.09375 457.84375,2.16071429 458.111607,2.29464286 L464.955357,5.72321429 C464.982143,5.75 464.995536,5.77232143 464.995536,5.79017857 Z M465.852679,7.14285714 L473.004464,18.7410714 L465.852679,15.1785714 L465.852679,7.14285714 Z M481,7.38392857 L481,21.5 C481,21.7232143 480.9375,21.9040179 480.8125,22.0424107 C480.6875,22.1808036 480.517857,22.25 480.303571,22.25 C480.089286,22.25 479.879464,22.1919643 479.674107,22.0758929 L473.767857,19.1294643 L481,7.38392857 Z M480.959821,5.77678571 C480.959821,5.80357143 479.814732,7.67633929 477.524554,11.3950893 C475.234375,15.1138393 473.892857,17.2901786 473.5,17.9241071 L468.276786,9.43303571 L472.616071,2.375 C472.767857,2.125 473,2 473.3125,2 C473.4375,2 473.553571,2.02678571 473.660714,2.08035714 L480.90625,5.69642857 C480.941964,5.71428571 480.959821,5.74107143 480.959821,5.77678571 Z" id="Medium"></path>
            </g>
        </g>
    </g>
</svg>