<?xml version="1.0" encoding="UTF-8"?>
<svg width="24px" height="22px" viewBox="0 0 24 22" version="1.1" xmlns="http://www.w3.org/2000/svg" xmlns:xlink="http://www.w3.org/1999/xlink">
    <!-- Generator: Sketch 46.2 (44496) - http://www.bohemiancoding.com/sketch -->
    <title>Group 4</title>
    <desc>Created with Sketch.</desc>
    <defs></defs>
    <g id="Web-UI" stroke="none" stroke-width="1" fill="none" fill-rule="evenodd" opacity="0.502604167">
        <g id="01_Tokensale_Karma_Web_1366px" transform="translate(-324.000000, -10677.000000)" fill-rule="nonzero" fill="#090E16">
            <g id="Contacts" transform="translate(203.000000, 10676.000000)">
                <g id="Group-4" transform="translate(121.000000, 1.000000)">
                    <path d="M0.42391134,10.1130143 L5.95399858,12.1962662 L8.09448138,19.1442343 C8.23144156,19.5892266 8.77056227,19.7537067 9.12840274,19.4584178 L12.2109668,16.9220182 C12.5340872,16.6562825 12.9943278,16.6430401 13.3320082,16.8904465 L18.8918555,20.9646574 C19.274656,21.2454927 19.8169767,21.0337761 19.9129769,20.5669016 L23.9858622,0.792884333 C24.0906623,0.282891344 23.5941817,-0.142560376 23.113061,0.0452552815 L0.417431332,8.88219999 C-0.142649402,9.10021472 -0.137769395,9.90057104 0.42391134,10.1130143 Z M7.74952093,11.0872979 L18.5573751,4.36864899 C18.7516153,4.2482564 18.9514556,4.51334617 18.7846554,4.66950932 L9.8650437,13.0380453 C9.55152329,13.3326075 9.34928303,13.7268104 9.29200295,14.1546845 L8.98816255,16.427367 C8.9479225,16.7308112 8.52560195,16.7609296 8.44264184,16.4672556 L7.27408031,12.322957 C7.14024013,11.8502688 7.33528039,11.3453628 7.74952093,11.0872979 Z" id="telegram"></path>
                </g>
            </g>
        </g>
    </g>
</svg>