<?xml version="1.0" encoding="utf-8"?><svg xmlns="http://www.w3.org/2000/svg" xmlns:xlink="http://www.w3.org/1999/xlink"><symbol viewBox="0 0 123 118" id="key1" xmlns="http://www.w3.org/2000/svg"><title>Decentralized Roles</title><defs><path d="M.999 16.611c0 8.754 7.099 15.851 15.853 15.851s15.851-7.097 15.851-15.851c0-8.757-7.097-15.854-15.851-15.854C8.098.757.999 7.854.999 16.611z" id="aa"/></defs><g fill="none" fill-rule="evenodd"><path d="M69 27l26.5 25.481M67 85.5l-6.038-52.758M105 18L29 91" stroke="#000" opacity=".3"/><use fill="#E62B1E" xlink:href="#aa" transform="translate(90)"/><path d="M32.704 101.61c0 8.755-7.097 15.852-15.852 15.852C8.098 117.462 1 110.365 1 101.61c0-8.754 7.098-15.852 15.852-15.852 8.755 0 15.852 7.098 15.852 15.852z" stroke="#000"/><path d="M65.5 23.758c0-4-4.143-6-5.179-7-1.035-1 1.036-3 1.036-5 0-3-1.036-4-3.107-4s-3.107 1-3.107 4c0 2 2.071 4 1.036 5-1.036 1-5.179 3-5.179 7m63.5 47c0-4-4.143-6-5.179-7-1.035-1 1.036-3 1.036-5 0-3-1.036-4-3.107-4s-3.107 1-3.107 4c0 2 2.071 4 1.036 5-1.036 1-5.179 3-5.179 7m-25.5 38c0-4-4.143-6-5.179-7-1.035-1 1.036-3 1.036-5 0-3-1.036-4-3.107-4s-3.107 1-3.107 4c0 2 2.071 4 1.036 5-1.036 1-5.179 3-5.179 7m-43.25.742V95.182M28 102.34l-4.091-7.158H9.36L5.5 102.34" stroke="#DD1318"/><path d="M28 102.34h-8.182s1.023 4.092 4.091 4.092c3.068 0 4.091-4.091 4.091-4.091zm-14.318 0H5.5s1.023 4.092 4.09 4.092c3.07 0 4.092-4.091 4.092-4.091z" stroke="#DD1318" stroke-linejoin="round"/><path d="M9.59 95.182l4.092 7.159m10.228-7.159l-4.092 7.159m1.022 7.159h-8.18" stroke="#DD1318"/><path d="M107 15.5H96.5s2.25-8 10.25-8" stroke="#FFF" stroke-linejoin="bevel"/><path d="M106.75 7.5c8 0 10.25 8 10.25 8h-10v9.25a1.75 1.75 0 0 1-3.5 0V24" stroke="#FFF" stroke-linejoin="bevel"/><path d="M4.363 62.283l7.56-8 3.78 3.5 8.1-10.5 3.78 3.5 3.78-5.5M9 63.783h18" stroke="#DD1318"/></g></symbol><symbol viewBox="0 0 142 57" id="key10" xmlns="http://www.w3.org/2000/svg"><title>Loans For Future Delivery</title><g fill="none" fill-rule="evenodd"><path stroke="#000" opacity=".295" stroke-linejoin="bevel" d="M78.348 31.9l3.803 4-3.803 4"/><path stroke="#DD1318" d="M11.392 53.177h48.357V27.5H11.392z"/><path stroke="#000" stroke-linejoin="bevel" d="M54.521 21.5H6.164v25.677"/><path stroke="#000" stroke-linejoin="bevel" d="M48.857 15H.5v25.677"/><path d="M42.75 39.924c0 5.49-3.053 9.94-6.817 9.94-3.766 0-6.82-4.45-6.82-9.94 0-5.489 3.054-9.939 6.82-9.939 3.764 0 6.817 4.45 6.817 9.94" fill="#DD1318"/><path d="M46.397 39.924h8.661m-38.603 0h8.66" stroke="#DD1318"/><path d="M66.75 36h15m-3.5 10s12 10 32 10 31-10 31-10" stroke="#000" opacity=".295" stroke-linejoin="bevel"/><path d="M109.25 49V0m0 11.416l-5-3.417v4l5 3.417z" stroke="#DD1318"/><path stroke="#DD1318" d="M109.25 15.416l-5-3.417v4l5 3.417zm0 4l-5-3.416v4l5 3.416z"/><path stroke="#DD1318" d="M109.25 23.416l-5-3.416v4l5 3.416z"/><path stroke="#DD1318" d="M109.25 27.416l-5-3.416v4l5 3.416z"/><path stroke="#DD1318" d="M109.25 31.416l-5-3.416v4l5 3.416zm0-20l5-3.417v4l-5 3.417z"/><path stroke="#DD1318" d="M109.25 15.416l5-3.417v4l-5 3.417zm0 4l5-3.416v4l-5 3.416z"/><path stroke="#DD1318" d="M109.25 23.416l5-3.416v4l-5 3.416z"/><path stroke="#DD1318" d="M109.25 27.416l5-3.416v4l-5 3.416z"/><path stroke="#DD1318" d="M109.25 31.416l5-3.416v4l-5 3.416zm5-23.416V3.5m-10 4.5V3.5m20 45.5V15m0 9.416l-5-3.416v4l5 3.416z"/><path stroke="#DD1318" d="M124.25 28.416l-5-3.416v4l5 3.416z"/><path stroke="#DD1318" d="M124.25 32.416l-5-3.416v4l5 3.416z"/><path stroke="#DD1318" d="M124.25 36.416l-5-3.416v4l5 3.416z"/><path stroke="#DD1318" d="M124.25 40.416l-5-3.416v4l5 3.416zm0-16l5-3.416v4l-5 3.416zM124.25 28.416l5-3.416v4l-5 3.416z"/><path stroke="#DD1318" d="M124.25 32.416l5-3.416v4l-5 3.416z"/><path stroke="#DD1318" d="M124.25 36.416l5-3.416v4l-5 3.416z"/><path stroke="#DD1318" d="M124.25 40.416l5-3.416v4l-5 3.416zM94.25 49V15m0 9.416l-5-3.416v4l5 3.416z"/><path stroke="#DD1318" d="M94.25 28.416l-5-3.416v4l5 3.416z"/><path stroke="#DD1318" d="M94.25 32.416l-5-3.416v4l5 3.416z"/><path stroke="#DD1318" d="M94.25 36.416l-5-3.416v4l5 3.416z"/><path stroke="#DD1318" d="M94.25 40.416l-5-3.416v4l5 3.416zm0-16l5-3.416v4l-5 3.416zM94.25 28.416l5-3.416v4l-5 3.416z"/><path stroke="#DD1318" d="M94.25 32.416l5-3.416v4l-5 3.416z"/><path stroke="#DD1318" d="M94.25 36.416l5-3.416v4l-5 3.416z"/><path stroke="#DD1318" d="M94.25 40.416l5-3.416v4l-5 3.416z"/></g></symbol><symbol viewBox="0 0 95 91" id="key2" xmlns="http://www.w3.org/2000/svg"><title>Decentralized Interchange Rules</title><g fill="none" fill-rule="evenodd"><path d="M32.204 74.11c0 8.755-7.097 15.852-15.852 15.852C7.598 89.962.5 82.865.5 74.11c0-8.754 7.098-15.852 15.852-15.852 8.755 0 15.852 7.098 15.852 15.852z" stroke="#000"/><path d="M51 56.5v-23" stroke="#000" opacity=".299"/><path stroke="#090E16" d="M51 28h13V13.333L51 0 38 13.333V28h13"/><path stroke="#090E16" d="M55 28V17h-8v11"/><path d="M51 56.5l19.854 11.61M50.855 56.5L31 68.11" stroke="#000" opacity=".299"/><path d="M24 67L8 83m8-13a4 4 0 1 1-8 0 4 4 0 0 1 8 0zm9 9a4 4 0 1 1-8 0 4 4 0 0 1 8 0z" stroke="#DD1318"/><path d="M95 74.5a9.5 9.5 0 0 1-9.5 9.5 9.5 9.5 0 0 1-9.5-9.5 9.5 9.5 0 0 1 9.5-9.5 9.5 9.5 0 0 1 9.5 9.5" fill="#E62B1E"/><path stroke="#FFF" d="M85.5 69.5v5.25l3.5 2.625"/></g></symbol><symbol viewBox="0 0 111 99" id="key3" xmlns="http://www.w3.org/2000/svg"><title>Decentralized Location</title><g fill="none" fill-rule="evenodd"><path d="M11.895 52.532C4.651 52.532.5 57.466.5 63.99c0 3.668 1.344 6.281 4.361 8.976.2.177.403.36.587.551 4.002 4.143 3.754 9.471 6.448 9.471 2.694 0 2.446-5.328 6.448-9.47.184-.192.39-.375.587-.552 3.017-2.695 4.361-5.308 4.361-8.976 0-6.523-4.152-11.457-11.396-11.457z" stroke="#DD1318"/><path d="M16.79 64.5a5 5 0 1 1-10-.001 5 5 0 0 1 10 .001zm84.105-53.287c-4.065 0-6.396 2.77-6.396 6.43 0 2.058.755 3.525 2.448 5.038.111.1.226.202.33.31 2.245 2.325 2.106 5.314 3.618 5.314s1.373-2.989 3.62-5.315c.103-.107.217-.21.328-.309 1.694-1.513 2.448-2.98 2.448-5.038 0-3.66-2.33-6.43-6.396-6.43z" stroke="#DD1318"/><path d="M103.79 17.5a3 3 0 1 1-5.999 0 3 3 0 0 1 6 0z" stroke="#DD1318"/><path d="M107.867 35.859a49.004 49.004 0 0 1 1.924 13.64c0 27.063-21.938 49-49 49-15.049 0-28.513-6.783-37.502-17.46M12.575 40.718C16.715 17.846 36.727.5 60.791.5A48.78 48.78 0 0 1 87.2 8.218" stroke="#000"/><path d="M78.79 49.5c0 27.062-8.058 49-18 49-9.94 0-18-21.938-18-49s8.06-49 18-49c9.942 0 18 21.938 18 49z" stroke="#000" opacity=".3"/><path d="M16.33 41.923C24.117 35.768 41.097 31.5 60.79 31.5c27.062 0 49 8.059 49 18 0 9.94-21.938 18-49 18-11.29 0-21.69-1.403-29.976-3.76" stroke="#000" opacity=".3"/><path d="M95.166 34.902A65.452 65.452 0 0 1 96.791 49.5c0 27.062-16.118 49-36 49-14.084 0-26.28-11.008-32.195-27.048" stroke="#000" opacity=".3"/><path d="M24.79 49.5c0-1.288.038-2.564.109-3.827C26.333 20.399 41.855.5 60.79.5c9.086 0 17.387 4.582 23.722 12.142" stroke="#000" opacity=".302"/><path d="M60.79.5v98" stroke="#000" opacity=".3"/></g></symbol><symbol viewBox="0 0 111 108" id="key4" xmlns="http://www.w3.org/2000/svg"><title>Decentralized Data and App</title><g fill="none" fill-rule="evenodd"><path d="M91.534 8.845c4.423 7.555 1.884 17.266-5.672 21.688-7.555 4.424-17.265 1.884-21.688-5.67-4.423-7.556-1.884-17.267 5.672-21.689 7.555-4.423 17.265-1.884 21.688 5.671z" stroke="#000"/><path d="M46.534 83.845c4.423 7.555 1.884 17.266-5.672 21.688-7.555 4.424-17.265 1.884-21.688-5.67-4.423-7.556-1.884-17.267 5.672-21.689 7.555-4.423 17.265-1.884 21.688 5.671z" fill="#E62B1E"/><path d="M87.625 99.822H73c-.553 0-1-.68-1-1.517v-2.787c0-.84.447-1.518 1-1.518h14.625c.553 0 1 .678 1 1.518v2.787c0 .837-.447 1.517-1 1.517zm21-36H94c-.553 0-1-.68-1-1.517v-2.787c0-.84.447-1.518 1-1.518h14.625c.553 0 1 .678 1 1.518v2.787c0 .837-.447 1.517-1 1.517zm-67.92-39H26.08c-.553 0-1-.68-1-1.517v-2.787c0-.84.447-1.518 1-1.518h14.625c.553 0 1 .678 1 1.518v2.787c0 .837-.447 1.517-1 1.517zm44.92 0H71c-.553 0-1-.68-1-1.517v-2.787c0-.84.447-1.518 1-1.518h14.625c.553 0 1 .678 1 1.518v2.787c0 .837-.447 1.517-1 1.517zm-69 39H2c-.553 0-1-.68-1-1.517v-2.787C1 58.678 1.447 58 2 58h14.625c.553 0 1 .678 1 1.518v2.787c0 .837-.447 1.517-1 1.517z" stroke="#DD1318"/><path d="M40.705 99.822H26.08c-.553 0-1-.68-1-1.517v-2.787c0-.84.447-1.518 1-1.518h14.625c.553 0 1 .678 1 1.518v2.787c0 .837-.447 1.517-1 1.517z" stroke="#FFF"/><path d="M87.625 90.822H73c-.553 0-1-.68-1-1.517v-2.787c0-.84.447-1.518 1-1.518h14.625c.553 0 1 .678 1 1.518v2.787c0 .837-.447 1.517-1 1.517zm21-36H94c-.553 0-1-.68-1-1.517v-2.787c0-.84.447-1.518 1-1.518h14.625c.553 0 1 .678 1 1.518v2.787c0 .837-.447 1.517-1 1.517zm-67.92-39H26.08c-.553 0-1-.68-1-1.517v-2.787c0-.84.447-1.518 1-1.518h14.625c.553 0 1 .678 1 1.518v2.787c0 .837-.447 1.517-1 1.517zm44.92 0H71c-.553 0-1-.68-1-1.517v-2.787c0-.84.447-1.518 1-1.518h14.625c.553 0 1 .678 1 1.518v2.787c0 .837-.447 1.517-1 1.517zm-69 39H2c-.553 0-1-.68-1-1.517v-2.787C1 49.678 1.447 49 2 49h14.625c.553 0 1 .678 1 1.518v2.787c0 .837-.447 1.517-1 1.517z" stroke="#DD1318"/><path d="M40.705 90.822H26.08c-.553 0-1-.68-1-1.517v-2.787c0-.84.447-1.518 1-1.518h14.625c.553 0 1 .678 1 1.518v2.787c0 .837-.447 1.517-1 1.517z" stroke="#FFF"/><path d="M74 97h5.755M95 61h5.755M27.08 22h5.755M72 22h5.755M3 61h5.755" stroke="#DD1318"/><path d="M26.858 97h5.755" stroke="#FFF"/><path d="M74 88h5.755M95 52h5.755M27.08 13h5.755M72 13h5.755M3 52h5.755" stroke="#DD1318"/><path d="M26.858 88h5.755" stroke="#FFF"/><path d="M87.278 97H86m22.278-36H107M40.358 22H39.08m46.198 0H84M16.278 61H15" stroke="#DD1318"/><path d="M40.579 97H39.3" stroke="#FFF"/><path d="M87.278 88H86m22.278-36H107M40.358 13H39.08m46.198 0H84M16.278 52H15" stroke="#DD1318"/><path d="M40.579 88H39.3" stroke="#FFF"/><path d="M23.717 78.068L18 68" stroke="#000" opacity=".298"/><path stroke="#000" opacity=".298" stroke-linejoin="bevel" d="M26 72.5L23.714 78 18 76.8"/><path d="M93 42l-6-10.068" stroke="#000" opacity=".298"/><path stroke="#000" opacity=".298" stroke-linejoin="bevel" d="M95 37l-2 5-5.5-1"/><path d="M65.5 92H51m7.291-75H45" stroke="#000" opacity=".298"/></g></symbol><symbol viewBox="0 0 151 80" id="key5" xmlns="http://www.w3.org/2000/svg"><title>Different Types of Collateral</title><g fill="none" fill-rule="evenodd"><path stroke="#000" opacity=".304" stroke-linejoin="bevel" d="M84 66v13H1V40h14.435M84 14V1h48v12.805"/><path stroke="#000" opacity=".304" stroke-linejoin="bevel" d="M137 9l-5 5-5-5M10 35l5 5-5 5"/><path stroke="#090E16" d="M37 51h13V36.333L37 23 24 36.333V51h13"/><path stroke="#090E16" d="M41 51V40h-8v11"/><path d="M81.667 55v-3.902h-1.334V55h-2.666v-3.902H71.04l.667-3.848h1.439c1.178 0 1.853-1.1 1.853-2.205V33.563c0-1.077-.647-1.813-1.82-1.813H71v-3.875h6.667V24h2.666v3.875h1.334V24h2.666v3.943c5.754.189 8.032 2.3 8.686 4.683.773 2.814-1.143 5.178-2.791 5.755 2.001.494 4.772 1.926 4.772 5.232 0 4.499-3.584 7.512-10.667 7.512V55h-2.666zm-1.334-14.216v6.466c5.292 0 8.918-.484 8.918-3.25 0-2.967-3.918-3.216-8.918-3.216zm0-2.576c2.948 0 7.438-.201 7.438-3.229 0-2.583-2.771-3.229-7.438-3.229v6.458z" fill="#DD1318"/><path d="M150 49.333l-3.931-8h-9.172l-3.931 8zm-10.483-10.666l-3.93-8h-9.173l-3.931 8zm-10.483 10.666l-3.93-8h-9.173l-3.931 8z" stroke="#DD1318" stroke-linejoin="bevel"/></g></symbol><symbol viewBox="0 0 145 98" id="key6" xmlns="http://www.w3.org/2000/svg"><title>Total Automation</title><g transform="translate(1 1)" fill="none" fill-rule="evenodd"><path d="M72 60.916c-10.999 0-19.914-8.918-19.914-19.915 0-11 8.915-19.916 19.914-19.916 10.999 0 19.914 8.917 19.914 19.916 0 10.997-8.915 19.915-19.914 19.915m36.748-26.602l-6.82-.145a2.281 2.281 0 0 1-2.139-1.611 28.875 28.875 0 0 0-2.167-5.24c-.465-.87-.31-1.94.373-2.653l4.718-4.922a2.301 2.301 0 0 0-.034-3.218l-6.204-6.204a2.3 2.3 0 0 0-3.217-.034l-4.924 4.717a2.28 2.28 0 0 1-2.653.374 28.874 28.874 0 0 0-5.238-2.167 2.281 2.281 0 0 1-1.611-2.14l-.146-6.82A2.3 2.3 0 0 0 76.386 2h-8.773a2.3 2.3 0 0 0-2.3 2.25l-.145 6.821a2.281 2.281 0 0 1-1.61 2.14 28.874 28.874 0 0 0-5.24 2.167 2.28 2.28 0 0 1-2.652-.374l-4.924-4.717a2.3 2.3 0 0 0-3.217.034l-6.204 6.204a2.301 2.301 0 0 0-.034 3.218l4.718 4.922c.683.713.838 1.784.373 2.654a28.875 28.875 0 0 0-2.167 5.239 2.281 2.281 0 0 1-2.14 1.61l-6.819.146A2.3 2.3 0 0 0 33 36.613v8.774a2.3 2.3 0 0 0 2.252 2.3l6.82.144a2.28 2.28 0 0 1 2.139 1.613 28.947 28.947 0 0 0 2.167 5.238c.465.87.31 1.94-.373 2.653l-4.718 4.924a2.3 2.3 0 0 0 .034 3.216l6.204 6.204a2.3 2.3 0 0 0 3.217.034l4.924-4.717a2.282 2.282 0 0 1 2.653-.374 28.878 28.878 0 0 0 5.238 2.168 2.281 2.281 0 0 1 1.611 2.14l.146 6.82a2.3 2.3 0 0 0 2.3 2.25h8.773a2.3 2.3 0 0 0 2.3-2.25l.145-6.82a2.281 2.281 0 0 1 1.61-2.14 28.878 28.878 0 0 0 5.24-2.168 2.28 2.28 0 0 1 2.652.374l4.924 4.717a2.3 2.3 0 0 0 3.217-.034l6.204-6.204a2.3 2.3 0 0 0 .034-3.216l-4.718-4.924a2.282 2.282 0 0 1-.373-2.653 28.947 28.947 0 0 0 2.167-5.238 2.28 2.28 0 0 1 2.14-1.613l6.819-.144a2.301 2.301 0 0 0 2.252-2.3v-8.774a2.3 2.3 0 0 0-2.252-2.299z" stroke="#DD1318"/><circle fill="#E62B1E" cx="72" cy="41" r="13"/><path d="M120.542 28.276a9.898 9.898 0 0 1-5.817-12.733c1.909-5.124 7.61-7.73 12.733-5.82 5.122 1.91 7.728 7.612 5.82 12.736-1.911 5.122-7.612 7.727-12.736 5.817zm21.737-6.01l-3.153-1.252a1.134 1.134 0 0 1-.716-1.122 14.2 14.2 0 0 0-.1-2.815 1.132 1.132 0 0 1 .635-1.172l3.052-1.474c.56-.27.801-.94.543-1.505l-1.813-3.967a1.144 1.144 0 0 0-1.493-.575l-3.111 1.343a1.135 1.135 0 0 1-1.301-.286 14.364 14.364 0 0 0-2.064-1.92 1.133 1.133 0 0 1-.379-1.275l1.116-3.203a1.143 1.143 0 0 0-.68-1.448L128.729.072a1.143 1.143 0 0 0-1.463.65l-1.25 3.151a1.134 1.134 0 0 1-1.124.716 14.515 14.515 0 0 0-2.816.1 1.132 1.132 0 0 1-1.17-.634l-1.475-3.053a1.14 1.14 0 0 0-1.504-.541l-3.967 1.812a1.143 1.143 0 0 0-.575 1.492l1.342 3.113c.195.45.081.976-.286 1.3a14.485 14.485 0 0 0-1.919 2.064c-.297.39-.813.541-1.277.38l-3.202-1.117a1.142 1.142 0 0 0-1.447.68l-1.524 4.087a1.145 1.145 0 0 0 .65 1.462l3.151 1.252c.456.18.748.632.717 1.122-.06.948-.024 1.89.1 2.815.065.487-.193.958-.635 1.173l-3.052 1.473c-.56.27-.8.94-.542 1.505l1.811 3.967c.259.565.923.821 1.493.575l3.113-1.343c.45-.194.977-.082 1.3.286a14.37 14.37 0 0 0 2.065 1.919c.39.297.54.814.378 1.276l-1.116 3.203c-.205.587.097 1.23.68 1.448l4.088 1.523a1.142 1.142 0 0 0 1.461-.65l1.251-3.151a1.136 1.136 0 0 1 1.123-.717c.949.06 1.89.025 2.816-.1.486-.065.958.193 1.171.635l1.475 3.053c.27.56.938.801 1.503.542l3.969-1.813c.564-.258.82-.922.574-1.492l-1.344-3.113c-.194-.45-.08-.976.288-1.3a14.41 14.41 0 0 0 1.918-2.064c.298-.39.815-.541 1.277-.38l3.203 1.117a1.142 1.142 0 0 0 1.446-.68l1.524-4.087a1.144 1.144 0 0 0-.649-1.461zM15.542 73.276c-5.123-1.91-7.729-7.611-5.819-12.735 1.91-5.122 7.612-7.727 12.735-5.817 5.122 1.91 7.728 7.61 5.818 12.733-1.91 5.124-7.61 7.73-12.734 5.82zm21.737-6.01l-3.153-1.252a1.134 1.134 0 0 1-.716-1.122c.06-.948.025-1.89-.1-2.815a1.135 1.135 0 0 1 .635-1.173l3.052-1.473c.56-.27.801-.94.543-1.505l-1.813-3.967a1.143 1.143 0 0 0-1.493-.575l-3.112 1.343c-.45.195-.976.082-1.3-.286a14.428 14.428 0 0 0-2.064-1.92 1.136 1.136 0 0 1-.38-1.275l1.117-3.203a1.145 1.145 0 0 0-.68-1.448l-4.087-1.523a1.142 1.142 0 0 0-1.462.648l-1.252 3.153c-.18.455-.632.748-1.122.716a14.364 14.364 0 0 0-2.816.1 1.132 1.132 0 0 1-1.17-.634l-1.475-3.053a1.142 1.142 0 0 0-1.505-.542l-3.967 1.813c-.566.258-.82.922-.574 1.492l1.342 3.113c.195.45.081.976-.286 1.3-.7.619-1.344 1.31-1.919 2.064-.297.39-.814.54-1.277.38l-3.202-1.117a1.143 1.143 0 0 0-1.448.68L.072 59.272a1.143 1.143 0 0 0 .65 1.461l3.151 1.253c.456.18.748.632.717 1.122-.06.948-.025 1.89.1 2.815.065.487-.193.958-.635 1.172l-3.052 1.474c-.56.27-.8.94-.542 1.505l1.811 3.967c.259.565.923.82 1.493.575l3.113-1.343a1.13 1.13 0 0 1 1.3.286c.618.7 1.309 1.343 2.064 1.919.39.297.54.814.38 1.276l-1.117 3.203c-.205.587.097 1.23.68 1.448l4.087 1.523a1.143 1.143 0 0 0 1.462-.65l1.251-3.151a1.135 1.135 0 0 1 1.123-.717c.947.06 1.89.025 2.816-.1.486-.065.958.193 1.171.635l1.474 3.053c.27.56.939.8 1.504.541l3.967-1.812c.566-.258.822-.922.576-1.492l-1.344-3.113a1.134 1.134 0 0 1 .288-1.3 14.48 14.48 0 0 0 1.918-2.064c.298-.39.813-.541 1.277-.38l3.203 1.117a1.142 1.142 0 0 0 1.446-.68l1.524-4.087a1.146 1.146 0 0 0-.649-1.462z" stroke="#000"/><path stroke="#000" opacity=".295" d="M19 87.895V96h52V82m40-20h13V40"/><path stroke="#000" opacity=".295" stroke-linejoin="bevel" d="M14 93l5-5 5 5m92-26l-5-5 5-5"/></g></symbol><symbol viewBox="0 0 112 116" id="key7" xmlns="http://www.w3.org/2000/svg"><title>Smart Scoring</title><g fill="none" fill-rule="evenodd"><path stroke="#000" opacity=".305" stroke-linejoin="bevel" d="M52 41l5-4 5 4"/><path d="M108 41c0-9.197-7.883-17.042-18-17-1.568-.042-3.447.29-5 1A27.101 27.101 0 0 0 69.36 3.453 27.247 27.247 0 0 0 58 1C47.345 1 38 7.463 34 17c-.341-.275-9.5-1.5-11 7-9.2.049-17 7.855-17 17 0 9.953 7.561 17.65 17 18h68c9.441-.353 17-8.049 17-18z" stroke="#DD1318"/><path d="M85 25c-.028.697 0 1.401 0 2 0 3.386-.756 6.85-2 10M23 24c8.837 0 16 7.163 16 16" stroke="#DD1318"/><path d="M57 93V37m13 10v38h25M43 47v38H18" stroke="#000" opacity=".305" stroke-linejoin="bevel"/><path d="M111 86a8 8 0 1 1-16 0 8 8 0 0 1 16 0zm-94 0a8 8 0 1 1-16 0 8 8 0 0 1 16 0z" stroke="#000" stroke-linejoin="bevel"/><path d="M69 104c0 6.628-5.372 12-12 12s-12-5.372-12-12 5.372-12 12-12 12 5.372 12 12" fill="#DD1318"/></g></symbol><symbol viewBox="0 0 115 98" id="key8" xmlns="http://www.w3.org/2000/svg"><title>Mutual Responsibility</title><g fill="none" fill-rule="evenodd"><path d="M24.333 85.866c-8.34-7.192-14.18-17.206-16.038-28.56m94.436 1.659c-.126.63-.265 1.256-.415 1.877-2.353 9.71-7.657 18.265-14.91 24.664M43.774 2.984A48.09 48.09 0 0 1 55.664 1.5c4.381 0 8.626.587 12.659 1.687" stroke="#000" opacity=".296" stroke-linejoin="bevel"/><path d="M65.164 49a9 9 0 0 1-9 9 9 9 0 0 1-9-9 9 9 0 0 1 9-9 9 9 0 0 1 9 9" fill="#DD1318"/><path d="M30.246 78.093h5.918m-6 15.407l5.564.064M35.164 91v.456a6.044 6.044 0 0 0 6.044 6.044h31.456v-5h-12.5" stroke="#000"/><path stroke="#000" d="M70.164 92.5h11.5v-5h-20.5m11 0h9.5v-6h-22.5m10.536 0h6.963V76h-23"/><path d="M34.664 83.5a9.319 9.319 0 0 1 5.462-8.483l5.538-2.517 15-7 2 4-10 7-5 12" stroke="#000"/><path d="M102.655 53.059l-4.185-4.185m15.137-6.651l-3.89-3.98m-1.414 2.212l.322-.322a6.043 6.043 0 0 0 0-8.548L86.383 9.342l-3.536 3.536 8.84 8.84" stroke="#DD1318"/><path stroke="#DD1318" d="M84.615 14.646l-8.13-8.133-3.537 3.537 14.496 14.494"/><path stroke="#DD1318" d="M79.666 16.767l-6.717-6.718-4.243 4.243 15.91 15.91m-7.451-7.45l-4.924-4.924-3.889 3.889L84.616 37.98"/><path d="M103.354 46.112a9.318 9.318 0 0 1-9.86 2.136l-5.697-2.136-15.556-5.657 1.414-4.242 12.021 2.12 12.021-4.95" stroke="#DD1318"/><path d="M47.252 16.111l-4.185 4.185M36.416 5.159l-3.98 3.889m2.212 1.414l-.322-.322a6.043 6.043 0 0 0-8.548 0L3.536 32.382l3.535 3.536 8.839-8.84" stroke="#000"/><path stroke="#000" d="M8.839 34.15L.707 42.281l3.536 3.536 14.495-14.496M10.96 39.1l-6.717 6.717 4.242 4.243 15.91-15.91"/><path stroke="#000" d="M16.944 41.6l-4.924 4.925 3.89 3.889L32.172 34.15"/><path d="M40.305 15.412a9.318 9.318 0 0 1 2.136 9.86l-2.136 5.696-5.657 15.556-4.243-1.414 2.122-12.02-4.95-12.02" stroke="#000"/></g></symbol><symbol viewBox="0 0 101 71" id="key9" xmlns="http://www.w3.org/2000/svg"><title>Business Development</title><g fill="none" fill-rule="evenodd"><g stroke="#DD1318"><path d="M.516 63.583l25-25 10 10 18.5-18.5 8.5 8.5 37.5-37.5"/><path d="M94.844.5l5.517.14.14 5.517"/></g><path fill="#DD1318" d="M77.016 32.083v38h16v-54.5z"/><path stroke="#000" stroke-linejoin="bevel" d="M71.016 39.583v30.5h-16v-28.5m-6 4v24.5h-16v-16.5m-6-5.999v22.5h-16v-10"/></g></symbol></svg>